<svg width="26" height="26" viewBox="0 0 26 26" fill="none" xmlns="http://www.w3.org/2000/svg">
<path d="M13 0C5.82031 0 0 5.82031 0 13C0 20.1797 5.82031 26 13 26C20.1797 26 26 20.1797 26 13C26 5.82031 20.1797 0 13 0ZM13.168 20.8638C11.7123 20.8638 10.3688 20.4748 9.19313 19.8635L4.60242 21.3084L6.11395 16.9737C5.38621 15.7511 4.93834 14.3061 4.93834 12.8058C4.93834 8.30445 8.63325 4.69227 13.168 4.69227C17.7027 4.63668 21.3976 8.24907 21.3976 12.7502C21.3976 17.2514 17.7027 20.8638 13.168 20.8638Z" fill="#EFF7FF"/>
<path d="M13.1681 5.91504C9.36121 5.91504 6.22607 8.9715 6.22607 12.7504C6.22581 14.195 6.69766 15.6 7.56975 16.7516L6.72995 19.308L9.41721 18.4744C10.5509 19.2075 11.874 19.5938 13.2241 19.5858C17.031 19.5858 20.1661 16.5293 20.1661 12.7504C20.11 8.9715 16.975 5.91504 13.1681 5.91504ZM17.2805 15.1263L17.1965 15.5274C17.1489 15.7525 17.0573 15.9659 16.9269 16.1554C16.7965 16.345 16.63 16.5069 16.4368 16.6318C15.939 16.9444 15.2998 17.1007 14.4825 16.8715C11.9518 16.1577 10.5215 14.4907 9.75126 13.4488C8.98103 12.4069 8.68245 11.365 8.87631 10.516C9.00729 9.94816 9.42641 9.50533 9.68839 9.28131C9.81829 9.17181 9.98508 9.11601 10.1547 9.12531L10.6944 9.15651C10.7466 9.15978 10.7969 9.17762 10.8395 9.208C10.8821 9.23839 10.9153 9.28011 10.9354 9.32842L11.7213 11.1622C11.7413 11.2104 11.7475 11.2632 11.7391 11.3147C11.7308 11.3663 11.7083 11.4145 11.6741 11.4539L10.9877 12.2405C10.9609 12.2717 10.944 12.3102 10.9394 12.3511C10.9348 12.392 10.9425 12.4333 10.9617 12.4697C11.8682 14.1993 13.5134 14.887 14.0058 15.0589C14.0465 15.0734 14.0907 15.0746 14.1321 15.0625C14.1735 15.0504 14.21 15.0254 14.2364 14.9913L14.954 14.0641C14.9932 14.014 15.0481 13.9786 15.1098 13.9635C15.1716 13.9484 15.2366 13.9545 15.2945 13.9809L17.1231 14.8144C17.1805 14.8413 17.2271 14.8866 17.2557 14.9432C17.2842 14.9997 17.293 15.0642 17.2805 15.1263Z" fill="#EFF7FF"/>
</svg>
