<svg width="26" height="26" viewBox="0 0 26 26" fill="none" xmlns="http://www.w3.org/2000/svg">
<g clip-path="url(#clip0_100_2901)">
<path d="M13.0121 10.7745C14.2535 10.77 15.2421 9.77285 15.2376 8.52884C15.2331 7.28429 14.2423 6.29403 13.0004 6.29297C11.7482 6.29164 10.7481 7.30025 10.7576 8.55597C10.7669 9.79546 11.7668 10.7791 13.0121 10.7745Z" fill="#EFF7FF"/>
<path d="M13 0C5.82028 0 0 5.82054 0 13C0 20.1795 5.82028 26 13 26C20.1797 26 26 20.1795 26 13C26 5.82054 20.1797 0 13 0ZM13.0186 3.95333C15.5508 3.96025 17.5832 6.03147 17.5701 8.59157C17.5574 11.0926 15.4917 13.1197 12.9638 13.1112C10.4617 13.1027 8.40964 11.0283 8.42453 8.52215C8.43863 5.98865 10.4918 3.94641 13.0186 3.95333ZM18.1473 14.9103C17.5874 15.4851 16.9134 15.9011 16.165 16.1913C15.4574 16.4655 14.6821 16.6036 13.9145 16.6956C14.0307 16.8217 14.0852 16.8836 14.1576 16.956C15.1992 18.0032 16.2458 19.045 17.2839 20.0951C17.6377 20.4532 17.7114 20.8968 17.5167 21.3126C17.3042 21.7674 16.8273 22.0664 16.3594 22.0342C16.0631 22.0137 15.8319 21.8666 15.6269 21.6599C14.8406 20.8689 14.0395 20.0919 13.2697 19.286C13.045 19.0514 12.9375 19.0961 12.7393 19.2998C11.9486 20.1143 11.1448 20.9157 10.3364 21.7129C9.97336 22.0709 9.5414 22.1358 9.12008 21.931C8.67243 21.7145 8.38783 21.2572 8.40964 20.7973C8.42506 20.4872 8.57774 20.2494 8.79106 20.0372C9.82228 19.0081 10.8503 17.9758 11.8786 16.9443C11.947 16.8759 12.0103 16.8033 12.1095 16.6969C10.7069 16.5504 9.44219 16.2051 8.35937 15.3585C8.22478 15.2532 8.0862 15.1516 7.96385 15.0335C7.4896 14.5784 7.44198 14.0568 7.81676 13.52C8.1378 13.0604 8.67615 12.9375 9.23605 13.2016C9.34457 13.2524 9.44777 13.3168 9.54672 13.3849C11.5645 14.7715 14.3366 14.8095 16.3623 13.4469C16.5629 13.2936 16.7775 13.1676 17.0262 13.104C17.5092 12.9795 17.9603 13.1575 18.2194 13.5804C18.516 14.0637 18.5125 14.535 18.1473 14.9103Z" fill="#EFF7FF"/>
</g>
<defs>
<clipPath id="clip0_100_2901">
<rect width="26" height="26" fill="white"/>
</clipPath>
</defs>
</svg>
