<svg width="26" height="26" viewBox="0 0 26 26" fill="none" xmlns="http://www.w3.org/2000/svg">
<path d="M13 0C10.4288 0 7.91543 0.762437 5.77759 2.1909C3.63975 3.61935 1.97351 5.64968 0.989572 8.02512C0.00563274 10.4006 -0.251811 13.0144 0.249797 15.5362C0.751405 18.0579 1.98954 20.3743 3.80762 22.1924C5.6257 24.0105 7.94208 25.2486 10.4638 25.7502C12.9856 26.2518 15.5995 25.9944 17.9749 25.0104C20.3503 24.0265 22.3807 22.3603 23.8091 20.2224C25.2376 18.0846 26 15.5712 26 13C26 9.55219 24.6304 6.24559 22.1924 3.80761C19.7544 1.36964 16.4478 0 13 0V0ZM20.4927 18.0877C20.1146 18.1409 18.265 18.0877 18.169 18.0877C17.6908 18.094 17.2295 17.9114 16.8852 17.5795C16.4952 17.2028 16.1466 16.7892 15.7655 16.3977C15.6532 16.2776 15.5311 16.1669 15.4006 16.0668C15.0963 15.8334 14.7949 15.8851 14.6516 16.2456C14.5397 16.6335 14.4616 17.0304 14.4182 17.4318C14.3931 17.7952 14.1626 18.0227 13.7549 18.0478C13.5023 18.0611 13.2497 18.067 13 18.0597C12.09 18.0547 11.1943 17.8334 10.3867 17.4141C9.51263 16.9275 8.75101 16.2621 8.1516 15.4611C7.16626 14.2025 6.37887 12.8198 5.67569 11.3942C5.63876 11.3218 4.91785 9.78841 4.90012 9.71602C4.83512 9.47523 4.90012 9.2433 5.09955 9.16205C5.2266 9.1133 7.60205 9.16205 7.64194 9.16205C7.81867 9.16085 7.9912 9.21587 8.1346 9.31917C8.278 9.42247 8.38483 9.5687 8.43967 9.73671C8.87917 10.8609 9.48035 11.915 10.2242 12.8656C10.3284 12.9922 10.4503 13.1031 10.5861 13.195C10.7797 13.328 10.9628 13.2822 11.0426 13.0576C11.1373 12.7481 11.1929 12.428 11.2081 12.1048C11.2214 11.4636 11.2081 11.0426 11.1726 10.4015C11.149 9.9908 11.0042 9.63182 10.3985 9.51512C10.2124 9.48114 10.1961 9.3275 10.3158 9.17386C10.5655 8.85625 10.9067 8.80455 11.2893 8.78534C11.8596 8.75284 12.4298 8.775 13 8.78534H13.1241C13.3723 8.78444 13.6199 8.80969 13.8627 8.86068C14.0064 8.89002 14.1368 8.96495 14.2345 9.07435C14.3322 9.18375 14.3919 9.32175 14.4049 9.46784C14.4342 9.6296 14.4466 9.79397 14.4418 9.9583C14.4271 10.657 14.3931 11.3573 14.3857 12.056C14.3788 12.3333 14.4041 12.6104 14.461 12.8818C14.5423 13.2541 14.7978 13.3472 15.0519 13.0783C15.3812 12.7315 15.683 12.3596 15.9546 11.9659C16.4358 11.2484 16.8324 10.4775 17.1364 9.66875C17.3018 9.25364 17.4318 9.16205 17.875 9.16205H20.3952C20.5451 9.15942 20.6945 9.17934 20.8384 9.22114C20.8894 9.23452 20.937 9.25829 20.9783 9.29094C21.0197 9.32358 21.0538 9.36442 21.0786 9.41087C21.1035 9.45733 21.1184 9.50841 21.1226 9.56092C21.1268 9.61343 21.12 9.66623 21.1028 9.71602C20.9788 10.2685 20.6803 10.7398 20.3642 11.1933C19.8516 11.9186 19.3109 12.6263 18.7865 13.3427C18.7234 13.4354 18.6657 13.5315 18.6136 13.6308C18.4157 13.9883 18.4305 14.1877 18.7171 14.4832C19.175 14.9544 19.664 15.3947 20.1057 15.8792C20.4297 16.2318 20.7223 16.6119 20.9802 17.0152C21.2949 17.5234 21.0955 18.002 20.4927 18.0877Z" fill="#EFF7FF"/>
</svg>
