<svg width="56" height="59" viewBox="0 0 56 59" fill="none" xmlns="http://www.w3.org/2000/svg">
<path d="M28.5175 57.7841C43.2512 57.7841 55.1952 45.8401 55.1952 31.1064C55.1952 16.3727 43.2512 4.42871 28.5175 4.42871C13.7838 4.42871 1.83984 16.3727 1.83984 31.1064C1.83984 45.8401 13.7838 57.7841 28.5175 57.7841Z" fill="white"/>
<path d="M53.6777 31.4408C53.6188 36.5897 51.976 41.5956 48.9724 45.7781C48.7004 46.1657 48.4119 46.5448 48.1069 46.9156C44.3342 51.6039 39.0098 54.7894 33.0948 55.897C27.1797 57.0046 21.0636 55.9614 15.8501 52.9558C15.7297 52.6344 15.6033 52.3214 15.489 52C13.7424 47.3766 11.6817 42.6111 10.6441 37.7686C9.98444 34.6619 9.34166 31.2506 10.1734 28.1113C11.1954 24.2137 15.052 21.5355 19.0399 22.4912C20.689 22.8873 22.2044 23.4398 23.7705 24.0404C26.3741 25.0467 29.2413 25.7629 31.9689 25.0214C34.4822 24.3377 37.004 22.6321 38.8986 20.8686C39.019 20.7615 39.1297 20.6544 39.2368 20.5388C39.3355 20.4485 39.2043 20.2921 39.0888 20.3571C36.691 21.5933 34.2355 23.1256 31.491 23.4723C28.6816 23.8334 26.0743 22.484 23.573 21.3874C22.2706 20.8193 20.9526 20.2752 19.5599 19.9779C15.3686 19.0884 10.7211 21.19 8.62786 24.9227C7.36638 27.164 6.99564 29.817 7.16055 32.3857C7.34953 35.2866 8.09944 38.2116 9.03111 40.9633C9.97842 43.7486 11.7756 46.8879 13.1237 49.5011C13.5483 50.3465 14.0163 51.1694 14.526 51.9663C9.50777 48.6537 5.23101 42.9518 3.77212 36.1208C3.7649 36.0883 3.75648 36.0473 3.74805 36.0136C3.3847 34.3023 3.21311 32.5558 3.23648 30.8064C3.40138 17.1685 14.5429 6.03661 28.1796 5.88976C32.9006 5.82924 37.5427 7.10264 41.572 9.56346C41.5805 9.57911 41.5889 9.58753 41.6057 9.58753C41.9512 9.80179 42.2894 10.0245 42.6277 10.2472C42.7926 10.3675 42.9647 10.4771 43.1296 10.5926C43.5256 10.8815 43.9205 11.1776 44.2996 11.4834C44.4561 11.6037 44.6138 11.7301 44.7618 11.8625C44.9593 12.023 45.1571 12.196 45.3553 12.3813C45.8825 12.8628 46.3844 13.3539 46.8623 13.8727C47.0116 14.0208 47.1512 14.1688 47.2908 14.3253C47.3655 14.4168 47.4473 14.5071 47.5316 14.5973C47.54 14.6058 47.5484 14.6226 47.5641 14.6395C47.6471 14.7298 47.7205 14.8285 47.8048 14.9187C47.9938 15.1498 48.1755 15.3725 48.3561 15.6109C48.3645 15.6193 48.373 15.6277 48.373 15.6361C48.6281 15.9575 48.8761 16.2873 49.106 16.6244C49.3781 17.0036 49.6344 17.3911 49.8812 17.7872C46.6011 16.5173 43.0995 17.2672 39.8279 18.1085C37.9657 18.59 36.1361 19.163 34.3233 19.7937C33.4254 20.1067 30.4919 20.9722 29.281 21.3429C29.2491 21.3535 29.2221 21.3753 29.2049 21.4042C29.1878 21.4331 29.1816 21.4672 29.1876 21.5003C29.1936 21.5334 29.2114 21.5632 29.2376 21.5843C29.2638 21.6053 29.2968 21.6162 29.3304 21.6149C32.3878 21.367 35.6342 20.4449 38.7566 19.7035C40.9569 19.175 43.2476 18.7056 45.5298 18.8464C47.4425 18.9668 49.3455 19.6204 50.548 21.1948C50.661 21.3457 50.7659 21.5024 50.8622 21.6643C53.2516 25.6774 51.4966 34.2635 50.6395 38.8857C50.6323 38.932 50.6419 38.9794 50.6664 39.0194C50.691 39.0594 50.729 39.0893 50.7736 39.1038C50.8183 39.1183 50.8666 39.1164 50.9099 39.0985C50.9533 39.0806 50.9889 39.0478 51.0103 39.0061C51.7818 37.3895 53.2323 33.1633 53.6777 31.4408Z" fill="#0054AC"/>
<path d="M31.3279 8.24671C30.8332 8.81606 30.2807 9.34569 29.8534 9.96078C29.1216 11.0116 28.4932 12.101 27.8071 13.1735C27.1643 14.1689 26.3735 15.1114 25.2914 15.6411C24.3284 16.1117 23.233 16.2164 22.1617 16.1815C20.0661 16.1141 18.0162 15.7 15.9229 16.0696C13.9669 16.4114 12.1481 17.2733 10.5592 18.4529C9.89238 18.9464 9.37359 19.6362 8.70312 20.3223C9.35192 18.081 11.9182 14.9056 14.2233 13.1386C19.3041 9.24819 25.0133 7.55819 31.3279 8.24671Z" fill="#8DC80E"/>
<path d="M30.5834 36.2623H33.7684C33.8322 36.2626 33.8954 36.2498 33.9539 36.2245C34.0125 36.1993 34.0653 36.1623 34.1089 36.1157C34.1525 36.0692 34.1861 36.0141 34.2074 35.954C34.2288 35.8939 34.2375 35.83 34.233 35.7664C34.2077 35.3571 34.1403 34.8034 33.9658 34.5073C33.7335 34.1221 33.4843 33.7851 33.11 33.5732C32.7043 33.3445 32.2443 33.2297 31.7787 33.241C31.301 33.2327 30.8298 33.3532 30.4149 33.5901C30.0229 33.8161 29.7044 34.1505 29.4976 34.553C29.2731 34.9982 29.1614 35.4918 29.1726 35.9903C29.163 36.4826 29.2703 36.9702 29.4856 37.413C29.6839 37.8102 29.9896 38.1438 30.3679 38.376C30.7592 38.6127 31.2094 38.7341 31.6667 38.7263C32.1755 38.738 32.6791 38.6222 33.1316 38.3892C33.4346 38.2249 33.7021 38.0024 33.9188 37.7344C33.9562 37.6886 33.9834 37.6355 33.9988 37.5784C34.0141 37.5214 34.0173 37.4617 34.0079 37.4034C33.998 37.3434 33.9755 37.2863 33.9419 37.2356C33.9083 37.185 33.8643 37.1421 33.8129 37.1097L33.7178 37.0483C33.6293 36.9942 33.5241 36.9743 33.422 36.9923C33.3198 37.0102 33.2277 37.0648 33.1629 37.1458C33.0301 37.3131 32.8667 37.4536 32.6814 37.5599C32.4047 37.7128 32.0924 37.7896 31.7763 37.7826C31.4734 37.7935 31.1733 37.7215 30.9084 37.5743C30.667 37.426 30.478 37.2059 30.3679 36.9448C30.3291 36.8588 30.2973 36.7699 30.2728 36.6788C30.2596 36.6302 30.2577 36.5791 30.2673 36.5297C30.2769 36.4802 30.2977 36.4336 30.3282 36.3935C30.3577 36.3534 30.3961 36.3206 30.4403 36.2978C30.4846 36.2751 30.5336 36.2629 30.5834 36.2623V36.2623ZM30.386 34.9491C30.4064 34.9093 30.4305 34.8696 30.4522 34.8287C30.4881 34.7612 30.5313 34.6978 30.581 34.6397C30.6789 34.5233 30.7952 34.4236 30.9252 34.3448C31.1849 34.1974 31.4802 34.1245 31.7787 34.1341C32.036 34.1286 32.2901 34.1913 32.5153 34.3159C32.7224 34.4373 32.8919 34.6135 33.0052 34.8251C33.0332 34.8743 33.057 34.9259 33.0763 34.9791C33.0938 35.0243 33.0999 35.0731 33.094 35.1212C33.0882 35.1693 33.0705 35.2152 33.0426 35.2548C33.0119 35.2985 32.9712 35.3342 32.9238 35.359C32.8765 35.3837 32.8239 35.3967 32.7705 35.3968H30.6556C30.5701 35.3968 30.4678 35.4137 30.3992 35.3523C30.3647 35.3141 30.3413 35.2673 30.3313 35.2169C30.3213 35.1664 30.3253 35.1142 30.3426 35.0658C30.3534 35.0256 30.3679 34.9865 30.386 34.9491V34.9491Z" fill="white"/>
<path d="M39.1248 38.6154C39.0124 38.6154 38.9047 38.5707 38.8252 38.4913C38.7457 38.4118 38.7011 38.304 38.7011 38.1916V35.4231C38.7011 35.0115 38.6108 34.7009 38.4339 34.4927C38.3347 34.3869 38.2133 34.3045 38.0784 34.2514C37.9435 34.1984 37.7985 34.1759 37.6539 34.1857C37.4227 34.1809 37.1941 34.2348 36.9894 34.3422C36.8041 34.441 36.6514 34.5916 36.5501 34.7755C36.4428 34.9742 36.3892 35.1974 36.3948 35.4231V38.1916C36.3948 38.304 36.3502 38.4118 36.2707 38.4913C36.1912 38.5707 36.0835 38.6154 35.9711 38.6154H35.8182C35.7059 38.6154 35.5981 38.5707 35.5186 38.4913C35.4392 38.4118 35.3945 38.304 35.3945 38.1916V33.7813C35.3948 33.669 35.4396 33.5614 35.519 33.482C35.5984 33.4026 35.706 33.3579 35.8182 33.3576H35.9711C36.0527 33.3579 36.1325 33.3817 36.201 33.4261C36.2695 33.4705 36.3238 33.5336 36.3575 33.6079L36.4779 33.874L36.6921 33.6753C36.7747 33.5998 36.8651 33.5333 36.9617 33.4767C37.2418 33.3175 37.5593 33.236 37.8814 33.2408C38.1311 33.2301 38.3801 33.2748 38.6105 33.3718C38.8409 33.4688 39.047 33.6156 39.2139 33.8017C39.5377 34.1725 39.7026 34.6792 39.7026 35.31V38.1868C39.7026 38.2992 39.6579 38.407 39.5785 38.4864C39.499 38.5659 39.3913 38.6105 39.2789 38.6105L39.1248 38.6154Z" fill="white"/>
<path d="M41.7561 38.6155C41.6437 38.6155 41.5359 38.5709 41.4565 38.4914C41.377 38.412 41.3324 38.3042 41.3324 38.1918V34.6216C41.3321 34.5368 41.2982 34.4556 41.2382 34.3956C41.1783 34.3356 41.097 34.3018 41.0122 34.3014H40.9159C40.8036 34.3011 40.696 34.2564 40.6166 34.177C40.5372 34.0976 40.4925 33.99 40.4922 33.8777V33.7814C40.4925 33.6692 40.5372 33.5616 40.6166 33.4822C40.696 33.4028 40.8036 33.3581 40.9159 33.3577H41.0122C41.0971 33.3577 41.1785 33.324 41.2386 33.264C41.2986 33.2039 41.3324 33.1225 41.3324 33.0376V31.9879C41.3327 31.8758 41.3775 31.7683 41.4569 31.6891C41.5363 31.6099 41.6439 31.5654 41.7561 31.5654H41.9089C42.0211 31.5654 42.1287 31.6099 42.2081 31.6891C42.2876 31.7683 42.3323 31.8758 42.3326 31.9879V33.0376C42.3326 33.1225 42.3664 33.2039 42.4264 33.264C42.4865 33.324 42.5679 33.3577 42.6528 33.3577H42.7491C42.8615 33.3577 42.9693 33.4024 43.0487 33.4818C43.1282 33.5613 43.1728 33.6691 43.1728 33.7814V33.8777C43.1728 33.9901 43.1282 34.0979 43.0487 34.1773C42.9693 34.2568 42.8615 34.3014 42.7491 34.3014H42.6528C42.568 34.3018 42.4868 34.3356 42.4268 34.3956C42.3668 34.4556 42.333 34.5368 42.3326 34.6216V38.1918C42.3326 38.3042 42.288 38.412 42.2086 38.4914C42.1291 38.5709 42.0213 38.6155 41.9089 38.6155H41.7561Z" fill="white"/>
<path d="M33.8662 47.8252C33.7652 47.8222 33.6677 47.7874 33.5875 47.7258C33.5074 47.6642 33.4486 47.579 33.4196 47.4822L30.9809 41.0364C30.9469 40.9468 30.9326 40.851 30.939 40.7554C30.9454 40.6599 30.9725 40.5668 31.0182 40.4827C31.0567 40.4067 31.1148 40.3425 31.1866 40.2967C31.2584 40.251 31.3412 40.2254 31.4263 40.2227H31.4925C31.5942 40.2278 31.6919 40.2643 31.7723 40.3269C31.8526 40.3896 31.9117 40.4755 31.9415 40.5729L33.6339 45.2782C33.6477 45.3292 33.678 45.3742 33.72 45.4063C33.762 45.4384 33.8134 45.4558 33.8662 45.4558C33.919 45.4558 33.9704 45.4384 34.0124 45.4063C34.0544 45.3742 34.0847 45.3292 34.0985 45.2782L35.7837 40.5765C35.8132 40.4784 35.8723 40.3918 35.9529 40.3285C36.0334 40.2652 36.1316 40.2282 36.2339 40.2227H36.2989C36.384 40.2253 36.4668 40.2508 36.5387 40.2965C36.6105 40.3423 36.6686 40.4066 36.7069 40.4827C36.7529 40.5667 36.7801 40.6597 36.7868 40.7553C36.7934 40.8509 36.7793 40.9467 36.7455 41.0364L34.3055 47.4822C34.2769 47.5779 34.2193 47.6623 34.1406 47.7238C34.0618 47.7852 33.966 47.8207 33.8662 47.8252V47.8252Z" fill="white"/>
<path d="M38.1737 48.0828C38.0239 48.0794 37.8815 48.0166 37.778 47.9083C37.6744 47.7999 37.618 47.6549 37.6212 47.5051V40.8004C37.6183 40.6507 37.6748 40.5058 37.7783 40.3976C37.8818 40.2893 38.024 40.2264 38.1737 40.2227H38.2243C38.3742 40.2261 38.5167 40.2889 38.6205 40.3972C38.7243 40.5055 38.7809 40.6505 38.778 40.8004V47.5051C38.7796 47.5794 38.7665 47.6532 38.7396 47.7225C38.7126 47.7918 38.6723 47.855 38.6208 47.9087C38.5694 47.9623 38.5079 48.0053 38.4399 48.0352C38.3718 48.0651 38.2986 48.0813 38.2243 48.0828H38.1737Z" fill="white"/>
<path d="M41.851 48.0824C41.7011 48.0789 41.5588 48.0161 41.4552 47.9078C41.3516 47.7995 41.2952 47.6544 41.2985 47.5046V41.6666C41.2998 41.5918 41.2713 41.5195 41.2195 41.4656C41.1676 41.4117 41.0964 41.3805 41.0216 41.3789H39.984C39.8308 41.3789 39.6838 41.3181 39.5755 41.2097C39.4671 41.1014 39.4063 40.9544 39.4062 40.8012C39.4063 40.6479 39.4671 40.501 39.5755 40.3926C39.6838 40.2843 39.8308 40.2234 39.984 40.2234H43.7769C43.9301 40.2234 44.0771 40.2843 44.1854 40.3926C44.2938 40.501 44.3547 40.6479 44.3547 40.8012C44.3547 40.9544 44.2938 41.1014 44.1854 41.2097C44.0771 41.3181 43.9301 41.3789 43.7769 41.3789H42.7405C42.7026 41.3783 42.6648 41.3853 42.6296 41.3995C42.5944 41.4137 42.5625 41.4349 42.5356 41.4618C42.5088 41.4886 42.4876 41.5206 42.4734 41.5558C42.4592 41.591 42.4522 41.6287 42.4528 41.6666V47.5046C42.4561 47.6544 42.3997 47.7995 42.2961 47.9078C42.1925 48.0161 42.0502 48.0789 41.9003 48.0824H41.851Z" fill="white"/>
<path d="M49.5669 47.2698L49.0144 45.8856L48.9735 45.7784L46.9789 40.824C46.9428 40.7246 46.8775 40.6384 46.7916 40.5768C46.7057 40.5151 46.6032 40.4809 46.4974 40.4785C46.3912 40.4787 46.2876 40.512 46.2013 40.574C46.1149 40.6359 46.0501 40.7234 46.016 40.824L43.4292 47.2674C43.3927 47.3564 43.3774 47.4526 43.3845 47.5485C43.3916 47.6444 43.4209 47.7373 43.4701 47.8199C43.513 47.8986 43.5761 47.9646 43.6529 48.0109C43.7297 48.0572 43.8174 48.0823 43.9071 48.0835H43.9721C44.0801 48.0816 44.1848 48.0456 44.2712 47.9808C44.3576 47.916 44.4214 47.8256 44.4536 47.7224L45.1216 46.4537C45.1404 46.4037 45.173 46.3601 45.2156 46.3279C45.2582 46.2957 45.3091 46.2763 45.3623 46.2719H47.6121C47.6648 46.2738 47.7159 46.2913 47.7587 46.3221C47.8015 46.353 47.8343 46.3958 47.8528 46.4453L48.0996 46.9147L48.1489 47.0134L48.5281 47.7356C48.563 47.8365 48.6277 47.9244 48.7137 47.9876C48.7997 48.0508 48.9029 48.0864 49.0096 48.0895H49.0842C49.1736 48.0871 49.2608 48.0615 49.3374 48.0153C49.414 47.9691 49.4773 47.9039 49.5211 47.8259C49.5901 47.6974 49.6159 47.5501 49.5946 47.4058C49.5898 47.3597 49.5805 47.3141 49.5669 47.2698ZM47.4411 45.1272C47.4222 45.1583 47.3955 45.1839 47.3636 45.2014C47.3317 45.2189 47.2958 45.2278 47.2594 45.2271H45.7848C45.7484 45.2279 45.7125 45.2191 45.6806 45.2016C45.6486 45.184 45.6219 45.1584 45.6031 45.1272C45.5796 45.096 45.5643 45.0593 45.5586 45.0206C45.5529 44.9819 45.557 44.9424 45.5706 44.9057L46.3048 42.6717C46.3186 42.6243 46.3473 42.5828 46.3867 42.5532C46.4261 42.5236 46.4741 42.5076 46.5233 42.5076C46.5726 42.5076 46.6205 42.5236 46.6599 42.5532C46.6993 42.5828 46.7281 42.6243 46.7418 42.6717L47.4833 44.9057C47.4949 44.9433 47.4971 44.9831 47.4897 45.0217C47.4824 45.0603 47.4657 45.0965 47.4411 45.1272Z" fill="white"/>
<path d="M47.5747 33.4812C47.4962 33.4812 47.4193 33.503 47.3525 33.5442C47.2858 33.5855 47.2318 33.6445 47.1967 33.7147L47.1197 33.8664C47.097 33.8905 47.0772 33.9171 47.0607 33.9458L46.8693 33.7785C46.5569 33.5022 46.1524 33.3528 45.7354 33.3596C44.7063 33.3596 43.5977 34.2022 43.5977 36.0378C43.5977 37.9024 44.7063 38.7522 45.7354 38.7522C46.155 38.7524 46.5599 38.5972 46.8717 38.3164L47.0631 38.1491C47.0787 38.176 47.0973 38.2011 47.1185 38.2238L47.1991 38.3778C47.2422 38.4627 47.3127 38.5306 47.3991 38.5704C47.4856 38.6102 47.583 38.6197 47.6755 38.5973C47.768 38.5748 47.8502 38.5218 47.9088 38.4468C47.9674 38.3718 47.999 38.2792 47.9984 38.184V33.9025C47.9978 33.7905 47.9528 33.6834 47.8734 33.6044C47.7941 33.5255 47.6866 33.4812 47.5747 33.4812V33.4812ZM47.0451 36.0511C47.0451 36.8359 46.6611 37.6809 45.8161 37.6809C44.9229 37.6809 44.6124 36.7974 44.6124 36.0402C44.6124 34.928 45.2142 34.4309 45.8161 34.4309C46.4179 34.4309 47.0451 34.9352 47.0451 36.0487V36.0511Z" fill="white"/>
<path d="M27.9239 32.5594C27.5918 31.9746 27.1044 31.493 26.5156 31.1679C25.8852 30.8281 25.1781 30.6561 24.4621 30.6683H22.7769C22.5854 30.6683 22.4017 30.7444 22.2662 30.8799C22.1308 31.0153 22.0547 31.199 22.0547 31.3906V37.8906C22.0547 38.0821 22.1308 38.2658 22.2662 38.4012C22.4017 38.5367 22.5854 38.6128 22.7769 38.6128H24.4621C25.1781 38.6251 25.8852 38.453 26.5156 38.1132C27.1044 37.7882 27.5918 37.3066 27.9239 36.7218C28.26 36.0791 28.4355 35.3646 28.4355 34.6394C28.4355 33.9141 28.26 33.1997 27.9239 32.5569V32.5594ZM23.2813 37.0335V32.25C23.2816 32.1717 23.3129 32.0967 23.3684 32.0414C23.4239 31.9861 23.4991 31.9551 23.5774 31.9551H24.5235C24.8977 31.9514 25.2695 32.015 25.6213 32.1429C25.9386 32.2605 26.228 32.443 26.4711 32.6785C26.7108 32.9176 26.8971 33.2048 27.0176 33.5211C27.2744 34.2437 27.2744 35.0326 27.0176 35.7552C26.8971 36.0715 26.7108 36.3587 26.4711 36.5978C26.2283 36.8337 25.9388 37.0162 25.6213 37.1334C25.2696 37.2614 24.8977 37.325 24.5235 37.3212H23.5762C23.4992 37.3212 23.4253 37.2912 23.3702 37.2374C23.315 37.1836 23.2831 37.1105 23.2813 37.0335V37.0335Z" fill="white"/>
<path d="M28.5226 3.7207C13.3848 3.7207 1.07812 16.031 1.07812 31.1651C1.07812 46.2993 13.3884 58.6096 28.5226 58.6096C43.6567 58.6096 55.967 46.2993 55.967 31.1651C55.967 16.031 43.6579 3.7207 28.5226 3.7207ZM49.0565 48.0856C46.5636 51.1196 43.429 53.563 39.8783 55.24C36.3277 56.917 32.4493 57.7858 28.5226 57.7839C13.847 57.7839 1.89905 45.8443 1.89905 31.1688C1.89905 16.4932 13.847 4.54524 28.5226 4.54524C43.1981 4.54524 55.1377 16.4932 55.1377 31.1688C55.1439 37.0442 53.196 42.7549 49.6006 47.4019C49.4201 47.633 49.2383 47.8629 49.0565 48.0856Z" fill="#8DC80E"/>
<path d="M44.8083 26.6397C44.4231 26.5194 44.0415 26.3858 43.6587 26.2594C43.3895 26.1771 43.1446 26.03 42.9455 25.8311C42.7463 25.6321 42.599 25.3874 42.5164 25.1183L42.1228 23.9398C42.1131 23.8976 42.0931 23.8584 42.0645 23.8259C42.036 23.7933 41.9997 23.7683 41.9591 23.7533C41.9259 23.7421 41.8908 23.7381 41.856 23.7413C41.8211 23.7446 41.7874 23.7552 41.7569 23.7723C41.7264 23.7894 41.6998 23.8127 41.6788 23.8408C41.6579 23.8688 41.6431 23.9009 41.6353 23.935C41.5017 24.331 41.3729 24.7295 41.2381 25.1243C41.1554 25.3902 41.0093 25.632 40.8124 25.8289C40.6155 26.0258 40.3737 26.1719 40.1078 26.2546C39.7094 26.3894 39.3073 26.523 38.9041 26.6566C38.8651 26.6662 38.8291 26.6855 38.7995 26.7126C38.7698 26.7398 38.7475 26.7739 38.7344 26.8119C38.7225 26.8433 38.7173 26.8769 38.7191 26.9105C38.721 26.944 38.7298 26.9769 38.7451 27.0068C38.7605 27.0367 38.7819 27.0631 38.808 27.0843C38.8341 27.1054 38.8644 27.1209 38.8969 27.1296C39.3001 27.2669 39.7058 27.3969 40.1102 27.5353C40.3699 27.6166 40.6064 27.759 40.7999 27.9503C40.9934 28.1417 41.1383 28.3767 41.2224 28.6355C41.3597 29.0279 41.4909 29.4275 41.6197 29.8247C41.6312 29.8767 41.6562 29.9247 41.6921 29.964C41.728 30.0032 41.7736 30.0324 41.8243 30.0486H41.9218C41.9727 30.0329 42.0185 30.0038 42.0545 29.9645C42.0905 29.9251 42.1153 29.8769 42.1264 29.8247C42.2468 29.4383 42.3828 29.0532 42.5116 28.6692C42.5947 28.3993 42.7429 28.1541 42.9431 27.9551C43.1434 27.7561 43.3896 27.6094 43.6599 27.5281C44.0511 27.3969 44.4399 27.2669 44.8323 27.1381C44.8787 27.1248 44.921 27.0999 44.9551 27.0658C44.9892 27.0317 45.0141 26.9895 45.0273 26.9431V26.8444C45.0116 26.7943 44.9831 26.7491 44.9447 26.7132C44.9063 26.6774 44.8593 26.652 44.8083 26.6397V26.6397ZM43.5612 26.9154C43.3987 26.9708 43.2338 27.0177 43.0797 27.0827C42.831 27.1815 42.6074 27.3344 42.425 27.5303C42.2427 27.7262 42.1061 27.9602 42.0253 28.2154C41.9832 28.3358 41.9435 28.4561 41.9049 28.5765C41.9013 28.5928 41.8957 28.6086 41.8881 28.6234H41.8784C41.8339 28.4862 41.7894 28.3514 41.7424 28.2154C41.6554 27.939 41.503 27.6876 41.2984 27.4825C41.0937 27.2774 40.8426 27.1246 40.5664 27.037C40.4292 26.9888 40.292 26.9443 40.1391 26.8937L40.2005 26.8721C40.3991 26.801 40.6061 26.7433 40.8023 26.653C41.027 26.5488 41.2273 26.3985 41.3901 26.2119C41.5529 26.0252 41.6746 25.8064 41.7473 25.5696C41.7894 25.4493 41.8291 25.3289 41.8676 25.2085C41.8676 25.1929 41.8785 25.1784 41.8893 25.1483C41.9061 25.1953 41.917 25.229 41.929 25.2687C41.9868 25.43 42.0301 25.5937 42.0999 25.7502C42.2013 25.9883 42.3531 26.2016 42.5449 26.3753C42.7368 26.5491 42.964 26.6791 43.211 26.7565L43.6335 26.8973L43.5612 26.9154Z" fill="white"/>
<path d="M43.6314 26.8999L43.57 26.9228C43.4063 26.9781 43.2414 27.0251 43.0885 27.0901C42.8391 27.1889 42.6148 27.342 42.432 27.5384C42.2492 27.7347 42.1124 27.9693 42.0316 28.2252C41.9883 28.3455 41.9486 28.4659 41.9113 28.5863C41.9077 28.6026 41.902 28.6184 41.8944 28.6332H41.8848C41.8403 28.4948 41.7957 28.36 41.7488 28.224C41.661 27.947 41.5081 27.695 41.3028 27.4893C41.0976 27.2837 40.846 27.1302 40.5691 27.0419C40.4307 26.9938 40.2935 26.9492 40.1406 26.8975C40.1707 26.8879 40.1852 26.8806 40.202 26.877C40.4062 26.8138 40.6071 26.7403 40.8039 26.6567C41.0288 26.5526 41.2294 26.4024 41.3926 26.2157C41.5558 26.0291 41.678 25.8103 41.7512 25.5734C41.7933 25.453 41.8342 25.3327 41.8715 25.2123C41.8715 25.1979 41.8824 25.1822 41.8932 25.1533C41.9101 25.1991 41.9209 25.234 41.9329 25.2737C41.9907 25.435 42.0352 25.5999 42.1051 25.7552C42.2067 25.994 42.3591 26.2079 42.5515 26.382C42.744 26.5562 42.9719 26.6865 43.2197 26.7639C43.3425 26.8048 43.4809 26.8481 43.6314 26.8999Z" fill="#0054AC"/>
<path d="M53.7517 31.1695C53.7608 36.4514 52.1028 41.6014 49.0139 45.886L48.973 45.7789C51.9766 41.5964 53.6194 36.5905 53.6783 31.4416C53.2329 33.1641 51.7825 37.3903 51.0085 39.0141C50.9871 39.0558 50.9515 39.0886 50.9081 39.1065C50.8648 39.1244 50.8165 39.1263 50.7718 39.1118C50.7272 39.0973 50.6892 39.0674 50.6646 39.0274C50.6401 38.9874 50.6305 38.94 50.6377 38.8937C51.4948 34.2715 53.2498 25.6854 50.8604 21.6723C50.7641 21.5104 50.6592 21.3537 50.5462 21.2029C49.3425 19.6284 47.4407 18.9772 45.528 18.8544C43.241 18.7136 40.9539 19.183 38.7548 19.7115C35.6324 20.4529 32.386 21.375 29.3286 21.6229C29.295 21.6242 29.262 21.6133 29.2358 21.5923C29.2096 21.5712 29.1918 21.5414 29.1858 21.5083C29.1798 21.4753 29.186 21.4411 29.2031 21.4122C29.2203 21.3833 29.2473 21.3615 29.2792 21.3509C30.4901 20.9802 33.4236 20.1147 34.3215 19.8017C36.1343 19.1674 37.9639 18.5908 39.8261 18.1166C43.0977 17.274 46.5993 16.5253 49.8794 17.7952C49.8794 17.7879 53.7517 24.3602 53.7517 31.1695Z" fill="white"/>
<path d="M48.1591 47.0144C45.7968 49.9484 42.8063 52.3151 39.4079 53.94C36.0096 55.5649 32.2899 56.4067 28.5231 56.4033C16.2862 56.3996 6.07642 47.6848 3.77734 36.1208C5.23623 42.9519 9.51299 48.6538 14.5288 51.9664C14.0196 51.1702 13.552 50.3482 13.1277 49.5036C11.7772 46.8904 9.98003 43.7511 9.03512 40.9658C8.10345 38.2141 7.34994 35.2891 7.16457 32.3882C6.99966 29.817 7.3704 27.1641 8.63188 24.9252C10.7239 21.1937 15.3726 19.0909 19.5663 19.9804C20.959 20.2777 22.2771 20.823 23.5795 21.3899C26.076 22.4865 28.688 23.8371 31.4974 23.4747C34.2419 23.1293 36.6974 21.5958 39.0952 20.3595C39.2156 20.2945 39.336 20.451 39.2433 20.5413C39.1361 20.6617 39.0206 20.764 38.905 20.8711C37.0104 22.6345 34.4886 24.3402 31.9753 25.0239C29.2477 25.7654 26.3805 25.0492 23.7769 24.0429C22.2121 23.441 20.6954 22.8897 19.0463 22.4937C15.0585 21.538 11.2018 24.2162 10.1798 28.1138C9.34808 31.2531 9.99086 34.6644 10.6505 37.7711C11.6881 42.6088 13.7488 47.3791 15.4954 52.0025C15.6158 52.3239 15.7361 52.6369 15.8565 52.9583C21.0702 55.9633 27.1862 57.0059 33.101 55.8978C39.0158 54.7898 44.3398 51.6041 48.1122 46.9157L48.1591 47.0144Z" fill="white"/>
</svg>
