<svg width="73" height="73" viewBox="0 0 73 73" fill="none" xmlns="http://www.w3.org/2000/svg">
<path d="M34.1331 16.3144C36.7406 15.0082 38.934 12.3931 42.1383 12.3704C45.0295 12.3499 48.0719 13.2956 50.4673 14.9078C57.4959 19.6387 58.4283 30.5907 54.5775 37.5637C51.7629 42.6603 52.3518 47.2925 52.3209 52.8393C52.2888 58.598 52.2499 65.601 47.9002 69.5234C46.4556 70.8261 43.6798 72.5608 41.7684 71.6623C39.7598 70.7182 40.3547 67.6412 38.9165 61.9656C38.0176 58.4184 35.8569 47.8999 30.0058 50.1237C25.9562 51.6627 24.9196 58.331 23.9986 61.9656C22.5602 67.6412 23.1553 70.7182 21.1466 71.6623C19.2353 72.5607 16.4595 70.8261 15.0148 69.5234C10.6654 65.601 10.6263 58.598 10.5942 52.8388C10.5732 49.0609 11.1556 45.4384 10.0689 41.7288C9.23568 38.8853 7.41871 36.3897 6.68448 33.5723C6.1148 31.3863 5.98989 29.0628 6.19209 26.8185C6.60363 22.2508 8.52982 17.5453 12.4478 14.908C14.8229 13.3093 17.8691 12.2136 20.8237 12.4296C24.3633 12.6884 26.01 15.3513 29.068 16.5751C31.0588 17.3717 32.6619 17.0513 34.1331 16.3144Z" fill="#F7F6F7"/>
<path d="M50.4664 14.9078C48.071 13.2955 45.0286 12.3499 42.1374 12.3704C41.5638 12.3746 41.0229 12.4628 40.5059 12.6107C42.5342 12.9852 44.5187 13.784 46.1886 14.9078C53.2172 19.6387 54.1497 30.5907 50.2988 37.5637C47.4843 42.6603 48.0732 47.2925 48.0422 52.8393C48.0102 58.598 47.9712 65.601 43.6216 69.5234C42.9896 70.0933 42.1029 70.7457 41.1454 71.2244C41.3204 71.4019 41.5247 71.5482 41.7677 71.6623C43.6791 72.5607 46.4549 70.8261 47.8995 69.5234C52.249 65.601 52.2881 58.598 52.3201 52.8393C52.3509 47.2925 51.7622 42.6603 54.5767 37.5637C58.4274 30.5907 57.4951 19.6387 50.4664 14.9078Z" fill="#F9F9F9"/>
<path d="M25.7271 50.1236C21.6774 51.6627 20.6409 58.3308 19.7199 61.9654C18.4556 66.9543 18.7616 69.9346 17.4902 71.2242C18.7217 71.8397 20.0705 72.1677 21.1458 71.6622C23.1545 70.718 22.5595 67.6411 23.9978 61.9654C24.8649 58.5435 25.8354 52.4344 29.3252 50.4465C28.3146 49.7901 27.1266 49.5917 25.7271 50.1236Z" fill="#F9F9F9"/>
<path d="M52.115 30.6056C60.2795 30.6056 66.8981 23.987 66.8981 15.8226C66.8981 7.65813 60.2795 1.03955 52.115 1.03955C43.9506 1.03955 37.332 7.65813 37.332 15.8226C37.332 23.987 43.9506 30.6056 52.115 30.6056Z" fill="#99D90E"/>
<path d="M52.1155 1.03955C51.3891 1.03955 50.6751 1.09317 49.9766 1.19484C57.118 2.23451 62.6206 8.39769 62.6206 15.8227C62.6206 23.2477 57.1178 29.4109 49.9766 30.4504C50.6751 30.5521 51.3891 30.6057 52.1155 30.6057C60.2669 30.6057 66.8985 23.9741 66.8985 15.8227C66.8987 7.67116 60.2669 1.03955 52.1155 1.03955Z" fill="#99D90E"/>
<path d="M49.5901 22.3617C48.7345 22.3617 47.8794 22.0363 47.228 21.3852L44.4525 18.6094C43.4741 17.6308 43.4741 16.0444 44.4526 15.066C45.4313 14.0877 47.0177 14.0872 47.9962 15.066L49.2359 16.3059C49.4315 16.5015 49.749 16.5015 49.9446 16.3059L56.1831 10.0674C57.1371 9.11346 58.6911 9.02562 59.689 9.93354C60.7545 10.9029 60.7837 12.5538 59.7767 13.5606L51.9525 21.3848C51.3011 22.0362 50.4456 22.3617 49.5901 22.3617Z" fill="white"/>
<path d="M19.9399 19.7598C20.5062 19.5916 20.8287 18.9964 20.6606 18.4301C20.4925 17.8639 19.8973 17.5413 19.3309 17.7094C17.3959 18.2842 15.6747 19.3303 14.3536 20.7343C10.6754 24.6432 11.3301 29.9035 11.4988 30.9182C11.5858 31.4415 12.0389 31.8124 12.5524 31.8124C13.2038 31.8124 13.7161 31.2142 13.6088 30.5675C13.4692 29.7272 12.924 25.3747 15.9113 22.2001C17.2535 20.7737 18.8429 20.0857 19.9399 19.7598ZM43.6964 14.3098C42.3219 15.6841 42.3055 17.9882 43.6963 19.3656L46.4721 22.1416C47.304 22.9731 48.4114 23.4311 49.5902 23.4311C50.7692 23.4311 51.8768 22.973 52.7088 22.1412L60.5328 14.3171C61.9625 12.8992 61.8858 10.4861 60.4086 9.1425C58.9955 7.85699 56.8073 7.93086 55.4268 9.3112L49.5902 15.1478L48.7525 14.3102C47.381 12.9246 45.072 12.9343 43.6964 14.3098ZM49.5902 17.5222C50.0099 17.5222 50.4043 17.3588 50.7008 17.0622L56.9392 10.8237C57.5009 10.2619 58.4115 10.2175 58.969 10.7246C59.5659 11.2675 59.596 12.2354 59.0203 12.8045L51.1963 20.6287C50.7684 21.0566 50.198 21.2922 49.5901 21.2922C48.9825 21.2922 48.4121 21.0566 47.9843 20.6291L45.2088 17.8533C44.6537 17.3036 44.6562 16.3747 45.2088 15.8225C45.7618 15.2697 46.6895 15.2668 47.2398 15.8225L48.4797 17.0623C48.7763 17.3588 49.1706 17.5222 49.5899 17.5222H49.5902ZM53.1249 0.00176459C52.5343 -0.0316031 52.0273 0.412158 51.9901 1.00165C51.9529 1.59115 52.4004 2.09922 52.9899 2.13658C60.1889 2.59189 65.8281 8.60363 65.8281 15.8226C65.8281 23.5285 59.5254 29.5363 52.1146 29.5363C44.553 29.5363 38.4011 23.3844 38.4011 15.8226C38.4011 9.73485 42.49 4.31204 48.3448 2.63567C48.9126 2.47311 49.2411 1.88105 49.0786 1.31323C48.916 0.745549 48.3238 0.416294 47.756 0.579424C41.7197 2.3077 37.3104 7.48239 36.4274 13.574C35.5193 14.1993 34.559 14.9048 33.6542 15.3582C32.1767 16.0984 30.9239 16.1653 29.4657 15.5825C28.3791 15.1474 27.4799 14.5031 26.5278 13.821C24.9632 12.7002 23.3454 11.5411 20.9009 11.3619C17.9751 11.149 14.6765 12.1175 11.8513 14.0197C8.07559 16.5617 5.62492 21.1915 5.12769 26.722C4.9001 29.2452 5.07578 31.6406 5.65002 33.8411C6.05727 35.4041 6.76484 36.8525 7.44902 38.2531C8.07516 39.5346 8.66637 40.7452 9.04225 42.0285C9.78974 44.5811 9.69506 47.1165 9.59467 49.8004C9.55774 50.7898 9.51952 51.8129 9.52537 52.845C9.55745 58.7407 9.59738 66.0778 14.2989 70.317C16.1738 72.0074 19.1612 73.7774 21.602 72.6297C23.4043 71.7824 23.6861 69.8897 24.0762 67.2704C24.2784 65.9126 24.5301 64.2224 25.0358 62.2282C25.152 61.7696 25.2688 61.2689 25.3924 60.739C25.5622 60.0112 25.8193 58.9734 24.7683 58.7258C23.7386 58.4833 23.4867 59.4929 23.3093 60.253C23.188 60.7729 23.0735 61.2639 22.9623 61.7027C22.4302 63.8011 22.1697 65.5501 21.9605 66.9555C21.6116 69.2985 21.4264 70.3489 20.6923 70.6941C19.5037 71.2521 17.2493 70.0985 15.7315 68.7289C11.7311 65.122 11.6941 58.3083 11.6643 52.8332C11.6586 51.8471 11.6961 50.8474 11.7322 49.8806C11.8344 47.1438 11.9402 44.314 11.0951 41.4276C10.668 39.9698 10.0086 38.62 9.37094 37.3145C8.70358 35.9483 8.07316 34.6579 7.71967 33.3015C7.20803 31.3403 7.0526 29.1913 7.25808 26.9141C7.69742 22.0277 9.807 17.9748 13.0459 15.7944C15.4818 14.1545 18.2877 13.3166 20.7452 13.4954C22.5891 13.6306 23.8371 14.5248 25.2823 15.5601C26.2959 16.2862 27.344 17.0369 28.6714 17.5686C30.7003 18.3796 32.5881 18.2848 34.6127 17.2707C35.1874 16.9825 35.7367 16.6404 36.2695 16.2829C36.5141 24.8119 43.5279 31.6751 52.1149 31.6751C53.289 31.6751 54.4332 31.5456 55.5354 31.3023C55.2219 33.3895 54.5775 35.3515 53.6414 37.0458C51.129 41.5958 51.1812 45.8324 51.2364 50.3178C51.2463 51.1337 51.2569 51.9774 51.2522 52.8386C51.221 58.3117 51.1822 65.1232 47.1833 68.729C45.6658 70.0985 43.4112 71.2523 42.2232 70.6941C41.4887 70.3488 41.3035 69.2984 40.9546 66.9552C40.7454 65.5499 40.4848 63.801 39.953 61.7028C39.054 58.1567 37.5906 51.3091 33.7601 49.2978C32.481 48.6261 31.0904 48.5681 29.627 49.1244C27.6326 49.882 26.0971 51.6778 24.9328 54.6142C24.7152 55.1633 24.9837 55.7849 25.5329 56.0025C26.082 56.2207 26.7036 55.9518 26.9213 55.4026C27.8518 53.0559 28.9854 51.6563 30.387 51.1237C31.2651 50.7899 32.0433 50.8119 32.7661 51.1916C35.6624 52.7127 37.1123 59.2007 37.8797 62.228C38.3853 64.2222 38.6369 65.9123 38.8391 67.2701C39.2293 69.8896 39.5111 71.7823 41.3136 72.6297C43.786 73.7922 46.7567 71.9939 48.6161 70.3171C53.3158 66.0794 53.3576 58.7444 53.3913 52.8449C53.396 51.9699 53.3854 51.1166 53.3753 50.2914C53.3214 45.9147 53.2748 42.1347 55.5138 38.0798C56.7203 35.8964 57.4958 33.3335 57.7753 30.6294C63.7293 28.3457 67.9677 22.5701 67.9677 15.8223C67.9671 7.47754 61.4476 0.528375 53.1249 0.00176459ZM13.1781 33.734C12.5893 33.7798 12.149 34.2944 12.1948 34.8832C12.2428 35.5015 12.3415 36.12 12.4878 36.7213C12.6067 37.2104 13.0442 37.5382 13.5261 37.5382C14.2044 37.5382 14.7279 36.8804 14.566 36.2156C14.4468 35.7255 14.3665 35.2216 14.3273 34.7177C14.2814 34.1285 13.7658 33.6868 13.1781 33.734Z" fill="#0053A7"/>
</svg>
