<svg width="16" height="16" viewBox="0 0 16 16" fill="none" xmlns="http://www.w3.org/2000/svg">
<g clip-path="url(#clip0_276_19266)">
<path d="M5.5821 11.769L4.25039 10.4373C4.18228 10.3675 4.08653 10.3318 3.98937 10.34C3.89286 10.347 3.80412 10.3956 3.74632 10.4732L0.0861463 15.4671C-0.0241873 15.6142 0.00562 15.8229 0.152721 15.9332C0.271107 16.0219 0.433845 16.0219 0.552232 15.9332L5.54611 12.271C5.69443 12.1624 5.72661 11.954 5.61796 11.8057C5.60788 11.792 5.5968 11.779 5.58475 11.767L5.5821 11.769Z" fill="#CFD8DC"/>
<path d="M9.91045 9.4387L6.58122 6.10946C6.02112 5.6734 5.32329 5.45252 4.61429 5.48688C3.68617 5.45442 2.78446 5.79909 2.11469 6.44237C1.57401 6.98305 1.62994 7.81868 2.28114 8.92667C2.89614 9.89099 3.62247 10.7796 4.44515 11.5741C5.76953 12.8978 7.44148 14.2734 8.65999 14.2734C9.00341 14.2821 9.33516 14.1486 9.57686 13.9045C10.9632 12.5189 10.6176 10.1465 9.91045 9.4387Z" fill="#84BC0B"/>
<path d="M12.5735 6.77537L9.24423 3.44611C9.11423 3.31614 8.90349 3.31614 8.77346 3.44611L6.11007 6.1095C5.6746 6.54497 5.71055 7.50779 7.10884 8.91073C8.02172 9.82361 8.74949 10.1559 9.2662 10.1559C9.50534 10.1643 9.73765 10.0754 9.91007 9.9095L12.5735 7.24611C12.7035 7.11611 12.7035 6.90537 12.5735 6.77537Z" fill="#99D90E"/>
<path d="M15.9745 5.88511C15.923 5.7606 15.8016 5.67939 15.6669 5.67936C14.9451 5.67936 13.3604 4.89897 12.2404 3.77903C11.1205 2.65909 10.3401 1.075 10.3401 0.352572C10.3404 0.168704 10.1916 0.0193868 10.0078 0.0190435C9.91912 0.0188874 9.83407 0.0540943 9.77145 0.116861C8.41178 1.47719 7.98698 3.79701 10.1044 5.91442C10.9099 6.8096 12.0438 7.34026 13.2472 7.38527C14.2482 7.37378 15.2034 6.96435 15.9019 6.24732C15.997 6.15234 16.0257 6.00946 15.9745 5.88511Z" fill="#84BC0B"/>
<path d="M13.9056 2.11431C12.4953 0.704692 11.2203 0.0195312 10.0077 0.0195312C9.82387 0.0195312 9.6748 0.168599 9.6748 0.352467C9.6748 1.34659 10.615 3.09511 11.7696 4.25035C12.9242 5.40559 14.674 6.34513 15.6675 6.34513C15.8513 6.34513 16.0004 6.19606 16.0004 6.01219C16.0004 4.79902 15.3152 3.5239 13.9056 2.11431Z" fill="#99D90E"/>
</g>
<defs>
<clipPath id="clip0_276_19266">
<rect width="15.981" height="15.981" fill="white" transform="translate(0.0195312 0.019043)"/>
</clipPath>
</defs>
</svg>
