<svg width="14" height="20" viewBox="0 0 14 20" fill="none" xmlns="http://www.w3.org/2000/svg">
<path d="M6.99971 0C3.14026 0 0 3.14026 0 7.0001C0 8.00689 0.206068 8.96816 0.612173 9.85742C2.36229 13.6871 5.71776 17.7304 6.70471 18.8783C6.77866 18.9641 6.88646 19.0135 6.9999 19.0135C7.11335 19.0135 7.22115 18.9641 7.29509 18.8783C8.28165 17.7306 11.6371 13.6875 13.3878 9.85742C13.7941 8.96816 14 8.00689 14 7.0001C13.9996 3.14026 10.8594 0 6.99971 0ZM6.99971 10.636C4.99487 10.636 3.36364 9.00474 3.36364 6.9999C3.36364 4.99487 4.99487 3.36364 6.99971 3.36364C9.00455 3.36364 10.6358 4.99487 10.6358 6.9999C10.636 9.00474 9.00474 10.636 6.99971 10.636Z" fill="white"/>
</svg>
