<svg width="15" height="15" viewBox="0 0 15 15" fill="none" xmlns="http://www.w3.org/2000/svg">
<path fill-rule="evenodd" clip-rule="evenodd" d="M14.7261 13.1939C14.6265 13.2932 14.5064 13.4202 14.379 13.5545C14.0612 13.8918 13.6642 14.3111 13.4153 14.4811C12.106 15.3758 10.3544 14.9477 9.11544 14.4315C7.481 13.7505 5.70154 12.4952 4.10377 10.8972C2.50452 9.29915 1.24938 7.51913 0.568372 5.88562C0.0527474 4.64637 -0.376247 2.89441 0.518568 1.58484C0.68849 1.33582 1.10875 0.939404 1.44561 0.620976C1.58037 0.494004 1.70635 0.374033 1.80596 0.274746C1.9828 0.098782 2.22213 0 2.4716 0C2.72107 0 2.9604 0.098782 3.13724 0.274746L5.54626 2.68307C5.72213 2.8599 5.82085 3.09916 5.82085 3.34856C5.82085 3.59796 5.72213 3.83722 5.54626 4.01405L4.89001 4.66898C4.67085 4.88655 4.52779 5.16906 4.48214 5.47448C4.43648 5.7799 4.49066 6.0919 4.63662 6.36404C5.53925 8.06767 6.93275 9.46093 8.63653 10.3633C8.90861 10.5092 9.22055 10.5633 9.52588 10.5176C9.83121 10.4718 10.1136 10.3287 10.331 10.1095L10.9856 9.45451C11.1625 9.27855 11.4018 9.17976 11.6513 9.17976C11.9008 9.17976 12.1401 9.27855 12.3169 9.45451L14.7261 11.8632C14.902 12.04 15.0007 12.2792 15.0007 12.5286C15.0007 12.7779 14.902 13.0172 14.7261 13.1939Z" fill="white"/>
</svg>
