<svg width="29" height="29" viewBox="0 0 29 29" fill="none" xmlns="http://www.w3.org/2000/svg">
<path d="M29 11.4775C29 8.87389 27.7498 6.43573 25.4798 4.6123C23.2549 2.82512 20.3057 1.84082 17.1757 1.84082C14.0457 1.84082 11.0965 2.82512 8.87156 4.6123C7.76849 5.49845 6.90704 6.52993 6.31198 7.65475C5.07761 8.04971 3.94264 8.64693 2.97171 9.42687C1.05544 10.9663 0 13.0267 0 15.2286C0 17.2364 0.888125 19.1431 2.5089 20.632L2.34911 26.4356C2.3413 26.7187 2.50403 26.979 2.76191 27.096C2.85508 27.1383 2.95415 27.1589 3.05253 27.1589C3.22636 27.1589 3.39793 27.0945 3.53075 26.9717L7.66512 23.1459C8.41181 23.2889 9.17929 23.3614 9.95187 23.3614C12.5348 23.3614 14.9716 22.5625 16.8306 21.11C16.9455 21.1126 17.0604 21.1144 17.1758 21.1144C18.3372 21.1144 19.4817 20.978 20.5837 20.7086L24.202 24.0569C24.3349 24.1797 24.5064 24.2441 24.6802 24.2441C24.7786 24.2441 24.8777 24.2235 24.9709 24.1812C25.2288 24.0642 25.3915 23.804 25.3837 23.5208L25.2462 18.5246C27.637 16.7056 29 14.1564 29 11.4775ZM9.95193 21.9534C9.15624 21.9534 8.36746 21.8668 7.60774 21.6959C7.38152 21.6452 7.14522 21.7087 6.97524 21.8661L3.80228 24.8022L3.92503 20.3422C3.93086 20.1293 3.84006 19.9252 3.67796 19.7871C2.21397 18.5395 1.40769 16.9205 1.40769 15.2286C1.40769 12.7657 3.09898 10.6081 5.61513 9.43661C5.44135 10.0994 5.35141 10.7824 5.35141 11.4774C5.35141 14.081 6.60158 16.5191 8.87156 18.3426C10.4666 19.6238 12.4338 20.4922 14.573 20.8814C13.2397 21.5589 11.6535 21.9534 9.95193 21.9534ZM24.1252 17.6014C23.9334 17.7374 23.8223 17.9599 23.8288 18.1949L23.9303 21.8875L21.2572 19.4139C21.1255 19.292 20.9541 19.2266 20.7791 19.2266C20.7169 19.2266 20.6542 19.2348 20.5926 19.2518C19.4956 19.5534 18.346 19.7064 17.1756 19.7064C11.4319 19.7064 6.75898 16.0149 6.75898 11.4774C6.75898 6.93989 11.4319 3.24845 17.1757 3.24845C22.9195 3.24845 27.5923 6.93995 27.5923 11.4774C27.5923 13.8066 26.3286 16.0386 24.1252 17.6014Z" fill="white"/>
<path d="M17.2739 9.38672C16.0125 9.38672 14.9863 10.4129 14.9863 11.6743C14.9863 12.9357 16.0125 13.9618 17.2739 13.9618C18.5353 13.9618 19.5614 12.9357 19.5614 11.6743C19.5614 10.4129 18.5353 9.38672 17.2739 9.38672ZM17.2739 12.5541C16.7887 12.5541 16.3941 12.1594 16.3941 11.6743C16.3941 11.1891 16.7887 10.7945 17.2739 10.7945C17.7591 10.7945 18.1537 11.1891 18.1537 11.6743C18.1537 12.1594 17.7591 12.5541 17.2739 12.5541Z" fill="white"/>
<path d="M23.2568 9.38672C21.9954 9.38672 20.9692 10.4129 20.9692 11.6743C20.9692 12.9357 21.9954 13.9618 23.2568 13.9618C24.5182 13.9618 25.5443 12.9357 25.5443 11.6743C25.5443 10.4129 24.5182 9.38672 23.2568 9.38672ZM23.2568 12.5541C22.7716 12.5541 22.377 12.1594 22.377 11.6743C22.377 11.1891 22.7717 10.7945 23.2568 10.7945C23.7419 10.7945 24.1366 11.1891 24.1366 11.6743C24.1366 12.1594 23.742 12.5541 23.2568 12.5541Z" fill="white"/>
<path d="M11.291 9.38672C10.0296 9.38672 9.00342 10.4129 9.00342 11.6743C9.00342 12.9357 10.0296 13.9618 11.291 13.9618C12.5522 13.9618 13.5785 12.9357 13.5785 11.6743C13.5785 10.4129 12.5523 9.38672 11.291 9.38672ZM11.291 12.5541C10.8058 12.5541 10.4112 12.1594 10.4112 11.6743C10.4112 11.1891 10.8058 10.7945 11.291 10.7945C11.7761 10.7945 12.1708 11.1891 12.1708 11.6743C12.1708 12.1594 11.7761 12.5541 11.291 12.5541Z" fill="white"/>
</svg>
