<svg width="28" height="28" viewBox="0 0 28 28" fill="none" xmlns="http://www.w3.org/2000/svg">
<path fill-rule="evenodd" clip-rule="evenodd" d="M23.2849 4.6761C20.8291 2.21741 17.5631 0.86277 14.0836 0.861328C6.9139 0.861328 1.07879 6.69628 1.0759 13.8679C1.07494 16.1605 1.67384 18.3984 2.81218 20.371L0.966797 27.1113L7.86239 25.3025C9.76241 26.3389 11.9015 26.8851 14.0783 26.8857H14.0838C21.2527 26.8857 27.0885 21.0503 27.0912 13.8783C27.0926 10.4026 25.7409 7.13464 23.2849 4.6761ZM14.0836 24.689H14.0791C12.1392 24.6882 10.2366 24.1669 8.57648 23.182L8.18186 22.9476L4.08991 24.0211L5.18211 20.0315L4.92497 19.6225C3.8427 17.9011 3.2712 15.9115 3.27216 13.8687C3.27441 7.90784 8.1245 3.05823 14.088 3.05823C16.9757 3.05919 19.6903 4.1852 21.7314 6.22877C23.7726 8.27234 24.8961 10.9887 24.8951 13.8775C24.8925 19.8389 20.0427 24.689 14.0836 24.689ZM20.0139 16.5918C19.689 16.429 18.091 15.643 17.793 15.5343C17.4953 15.4259 17.2784 15.3719 17.0619 15.6971C16.8451 16.0224 16.2224 16.7546 16.0327 16.9713C15.843 17.1883 15.6536 17.2155 15.3285 17.0527C15.0034 16.8901 13.9563 16.5468 12.7147 15.4395C11.7486 14.5777 11.0964 13.5134 10.9067 13.1881C10.7173 12.8626 10.9051 12.7036 11.0493 12.5248C11.4011 12.0879 11.7534 11.6299 11.8617 11.4131C11.9702 11.1961 11.9159 11.0063 11.8345 10.8437C11.7534 10.681 11.1034 9.08128 10.8327 8.43031C10.5686 7.79681 10.3009 7.88237 10.1013 7.87244C9.91189 7.86298 9.69512 7.86106 9.47834 7.86106C9.26173 7.86106 8.90957 7.94229 8.61157 8.26785C8.31372 8.59325 7.47418 9.37944 7.47418 10.9792C7.47418 12.579 8.6388 14.1244 8.80126 14.3414C8.96372 14.5583 11.0932 17.8412 14.3534 19.2488C15.1289 19.584 15.7342 19.7838 16.2063 19.9336C16.985 20.181 17.6933 20.146 18.2534 20.0624C18.878 19.969 20.1762 19.2761 20.4473 18.517C20.7181 17.7577 20.7181 17.107 20.6367 16.9713C20.5556 16.8358 20.3388 16.7546 20.0139 16.5918Z" fill="white"/>
</svg>
