<svg width="17" height="26" viewBox="0 0 17 26" fill="none" xmlns="http://www.w3.org/2000/svg">
<path d="M0.242477 13.8726C-0.430167 15.1869 0.333553 15.8151 2.07606 16.8883C3.55742 17.798 5.60388 18.1306 6.91845 18.2637C6.37967 18.7785 8.84859 16.4182 1.7381 23.2165C0.230407 24.6529 2.65763 26.9575 4.16422 25.5516L8.24289 21.6415C9.80434 23.1347 11.3011 24.5657 12.3215 25.5571C13.8292 26.9684 16.2554 24.6834 14.7641 23.2219C14.6522 23.1161 9.23704 17.9528 9.56733 18.2691C10.8983 18.1361 12.9141 17.7838 14.3779 16.8938L14.3768 16.8927C16.1193 15.814 16.883 15.1869 16.2203 13.8726C15.8197 13.1266 14.74 12.5027 13.3025 13.5814C13.3025 13.5814 11.3614 15.0592 8.23082 15.0592C5.09912 15.0592 3.1591 13.5814 3.1591 13.5814C1.72273 12.4972 0.638602 13.1266 0.242477 13.8726Z" fill="white"/>
<path d="M8.22889 13C12.1921 13 15.4283 10.0899 15.4283 6.50749C15.4283 2.91006 12.1921 0 8.22889 0C4.26453 0 1.02832 2.91006 1.02832 6.50749C1.02832 10.0899 4.26453 13 8.22889 13ZM8.22889 3.29657C10.1763 3.29657 11.7648 4.73233 11.7648 6.50749C11.7648 8.26767 10.1763 9.70343 8.22889 9.70343C6.28147 9.70343 4.69299 8.26767 4.69299 6.50749C4.69185 4.73126 6.28033 3.29657 8.22889 3.29657Z" fill="white"/>
</svg>
