<svg width="28" height="16" viewBox="0 0 28 16" fill="none" xmlns="http://www.w3.org/2000/svg">
<path fill-rule="evenodd" clip-rule="evenodd" d="M24.098 10.1524C25.0268 11.0592 26.0071 11.9124 26.8401 12.9106C27.2081 13.3542 27.5565 13.812 27.823 14.3268C28.2007 15.0587 27.8586 15.864 27.2024 15.9077L23.1233 15.9059C22.0712 15.9932 21.2319 15.5696 20.5262 14.8503C19.9615 14.275 19.4385 13.6628 18.8954 13.0681C18.6728 12.8251 18.4398 12.5964 18.1614 12.4156C17.6045 12.0542 17.1212 12.1648 16.803 12.7456C16.4789 13.3363 16.4053 13.9904 16.3735 14.6487C16.3298 15.6093 16.0395 15.8618 15.0746 15.9058C13.0126 16.003 11.0557 15.691 9.23773 14.6508C7.63497 13.7338 6.3921 12.4392 5.31032 10.9737C3.20406 8.11984 1.59109 4.98396 0.141409 1.76022C-0.184901 1.03391 0.053737 0.64403 0.855117 0.63023C2.18584 0.604379 3.51639 0.60622 4.84868 0.628391C5.38952 0.636303 5.74757 0.946514 5.95641 1.45746C6.67637 3.22775 7.55733 4.91201 8.66312 6.47319C8.9576 6.88883 9.25788 7.30447 9.68548 7.59702C10.1585 7.92094 10.5187 7.81358 10.7412 7.28662C10.8824 6.95249 10.9443 6.5926 10.9761 6.23474C11.0815 5.00355 11.0954 3.77448 10.9105 2.54762C10.797 1.78193 10.3657 1.28626 9.60167 1.14136C9.21179 1.06749 9.26984 0.922411 9.45861 0.699872C9.78649 0.316063 10.0949 0.0771484 10.7096 0.0771484H15.3196C16.0454 0.220387 16.2065 0.546422 16.3059 1.27669L16.3099 6.39748C16.3019 6.68018 16.4511 7.5191 16.9603 7.70622C17.3678 7.83943 17.6364 7.5134 17.881 7.25498C18.9847 6.0835 19.7725 4.69904 20.4763 3.26547C20.7886 2.63511 21.0571 1.98046 21.3174 1.32637C21.5102 0.840994 21.8128 0.602171 22.3595 0.612751L26.7964 0.616707C26.928 0.616707 27.0611 0.618639 27.1885 0.640442C27.9362 0.767857 28.141 1.08948 27.9101 1.81956C27.5463 2.96501 26.8384 3.91956 26.1462 4.87853C25.4063 5.90236 24.6149 6.89113 23.8812 7.92103C23.207 8.86151 23.2605 9.33557 24.098 10.1524Z" fill="white"/>
</svg>
