<svg width="25" height="25" viewBox="0 0 25 25" fill="none" xmlns="http://www.w3.org/2000/svg">
<path d="M3.67343 9.97176H15.0771C15.4141 9.97176 15.6894 9.69645 15.6894 9.35946C15.6894 9.02247 15.4141 8.74717 15.0771 8.74717H3.67343C3.33644 8.74717 3.06113 9.02247 3.06113 9.35946C3.06113 9.69645 3.33644 9.97176 3.67343 9.97176Z" fill="white" stroke="white" stroke-width="0.2"/>
<path d="M9.37527 14.9972H3.67343C3.33644 14.9972 3.06113 15.2725 3.06113 15.6095C3.06113 15.9465 3.33644 16.2218 3.67343 16.2218H9.37527C9.71226 16.2218 9.98757 15.9465 9.98757 15.6095C9.98757 15.2725 9.71226 14.9972 9.37527 14.9972Z" fill="white" stroke="white" stroke-width="0.2"/>
<path d="M9.37527 18.1222H3.67343C3.33644 18.1222 3.06113 18.3975 3.06113 18.7345C3.06113 19.0715 3.33644 19.3468 3.67343 19.3468H9.37527C9.71226 19.3468 9.98757 19.0715 9.98757 18.7345C9.98757 18.3975 9.71226 18.1222 9.37527 18.1222Z" fill="white" stroke="white" stroke-width="0.2"/>
<path d="M3.67343 13.0968H15.0771C15.4141 13.0968 15.6894 12.8215 15.6894 12.4845C15.6894 12.1475 15.4141 11.8722 15.0771 11.8722H3.67343C3.33644 11.8722 3.06113 12.1475 3.06113 12.4845C3.06113 12.8215 3.33644 13.0968 3.67343 13.0968Z" fill="white" stroke="white" stroke-width="0.2"/>
<path d="M24.9241 11.2734L24.924 11.2734C25.0323 11.3877 25.1 11.5398 25.1 11.7059C25.1 11.8674 25.032 12.0238 24.9205 12.147L24.917 12.1509L24.9169 12.1508L20.4125 16.6348V24.4877C20.4125 24.8247 20.1372 25.1 19.8002 25.1H0.512295C0.175304 25.1 -0.1 24.8247 -0.1 24.4877V0.512295C-0.1 0.175304 0.175304 -0.1 0.512295 -0.1H15.123C15.1404 -0.1 15.1554 -0.0978467 15.1641 -0.0966024L15.1653 -0.0964318C15.1748 -0.095075 15.1771 -0.0948752 15.1793 -0.0948752H15.1793H15.1794H15.1794H15.1794H15.1795H15.1795H15.1795H15.1795H15.1796H15.1796H15.1796H15.1797H15.1797H15.1797H15.1798H15.1798H15.1798H15.1798H15.1799H15.1799H15.1799H15.18H15.18H15.18H15.1801H15.1801H15.1801H15.1801H15.1802H15.1802H15.1802H15.1803H15.1803H15.1803H15.1804H15.1804H15.1804H15.1804H15.1805H15.1805H15.1805H15.1806H15.1806H15.1806H15.1807H15.1807H15.1807H15.1807H15.1808H15.1808H15.1808H15.1809H15.1809H15.1809H15.181H15.181H15.181H15.181H15.1811H15.1811H15.1811H15.1812H15.1812H15.1812H15.1813H15.1813H15.1813H15.1813H15.1814H15.1814H15.1814H15.1815H15.1815H15.1815H15.1816H15.1816H15.1816H15.1816H15.1817H15.1817H15.1817H15.1818H15.1818H15.1818H15.1819H15.1819H15.1819H15.1819H15.182H15.182H15.182H15.1821H15.1821H15.1821H15.1822H15.1822H15.1822H15.1822H15.1823H15.1823H15.1823H15.1824H15.1824H15.1824H15.1825H15.1825H15.1825H15.1825H15.1826H15.1826H15.1826H15.1827H15.1827H15.1827H15.1828H15.1828H15.1828H15.1828H15.1829H15.1829H15.1829H15.183H15.183H15.183H15.1831H15.1831H15.1831H15.1831H15.1832H15.1832H15.1832H15.1833H15.1833H15.1833H15.1834H15.1834H15.1834H15.1834H15.1835H15.1835H15.1835H15.1836H15.1836H15.1836H15.1837H15.1837H15.1837H15.1837H15.1838H15.1838H15.1838H15.1839H15.1839H15.1839H15.184H15.184H15.184H15.184H15.1841H15.1841H15.1841H15.1842H15.1842H15.1842H15.1843H15.1843H15.1843H15.1843H15.1844H15.1844H15.1844H15.1845H15.1845H15.1845H15.1846H15.1846H15.1846H15.1846H15.1847H15.1847H15.1847H15.1848H15.1848H15.1848H15.1849H15.1849H15.1849H15.1849H15.185H15.185H15.185H15.1851H15.1851H15.1851H15.1852H15.1852H15.1852H15.1852H15.1853H15.1853H15.1853H15.1854H15.1854H15.1854H15.1855H15.1855H15.1855H15.1855H15.1856H15.1856H15.1856H15.1857H15.1857H15.1857H15.1858H15.1858H15.1858H15.1858H15.1859H15.1859H15.1859H15.186H15.186H15.186H15.1861H15.1861H15.1861H15.1861H15.1862H15.1862H15.1862H15.1863H15.1863H15.1863H15.1864H15.1864H15.1864H15.1864H15.1865H15.1865H15.1865H15.1866H15.1866H15.1866H15.1867H15.1867H15.1867H15.1867H15.1868H15.1868H15.1868H15.1869H15.1869H15.1869H15.187H15.187H15.187H15.187H15.1871H15.1871H15.1871H15.1872H15.1872H15.1872H15.1873H15.1873H15.1873H15.1873H15.1874H15.1874H15.1874H15.1875H15.1875H15.1875H15.1876H15.1876H15.1876H15.1876H15.1877H15.1877H15.1877H15.1878H15.1878H15.1878H15.1879H15.1879H15.1879H15.1879H15.188H15.188H15.188H15.1881H15.1881H15.1881H15.1882H15.1882H15.1882H15.1882H15.1883H15.1883H15.1883H15.1884H15.1884H15.1884H15.1885H15.1885H15.1885H15.1885H15.1886H15.1886H15.1886H15.1887H15.1887H15.1887H15.1888H15.1888H15.1888H15.1888H15.1889H15.1889H15.1889H15.189H15.189H15.189H15.1891H15.1891H15.1891H15.1891H15.1892H15.1892H15.1892H15.1893H15.1893H15.1893H15.1894H15.1894H15.1894H15.1894H15.1895H15.1895H15.1895H15.1896H15.1896H15.1896H15.1897H15.1897H15.1897H15.1897H15.1898H15.1898H15.1898H15.1899H15.1899H15.1899H15.19H15.19H15.19H15.19H15.1901H15.1901H15.1901H15.1902H15.1902H15.1902H15.1903H15.1903H15.1903H15.1903H15.1904H15.1904H15.1904H15.1905H15.1905H15.1905H15.1906H15.1906H15.1906H15.1906H15.1907H15.1907H15.1907H15.1908H15.1908H15.1908H15.1909H15.1909H15.1909H15.1909H15.191H15.191H15.191H15.1911H15.1911H15.1911H15.1912H15.1912H15.1912H15.1912H15.1913H15.1913H15.1913H15.1914H15.1914H15.1914H15.1915H15.1915H15.1915H15.1916H15.1916H15.1916H15.1916H15.1917H15.1917H15.1917H15.1918H15.1918H15.1918H15.1919H15.1919H15.1919H15.1919H15.192H15.192H15.192H15.1921H15.1921H15.1921H15.1922H15.1922H15.1922H15.1922H15.1923H15.1923H15.1923H15.1924H15.1924H15.1924H15.1925H15.1925H15.1925H15.1925H15.1926H15.1926H15.1926H15.1927H15.1927H15.1927H15.1928H15.1928H15.1928H15.1928H15.1929H15.1929H15.1929H15.193H15.193H15.193H15.1931H15.1931H15.1931H15.1931H15.1932H15.1932H15.1932H15.1933H15.1933H15.1933H15.1934H15.1934H15.1934H15.1934H15.1935H15.1935H15.1935H15.1936H15.1936H15.1936H15.1937H15.1937H15.1937H15.1937H15.1938H15.1938H15.1938H15.1939H15.1939H15.1939H15.194H15.194H15.194H15.194H15.1941H15.1941H15.1941H15.1942H15.1942H15.1942H15.1943H15.1943H15.1943H15.1943H15.1944H15.1944H15.1944H15.1945H15.1945H15.1945H15.1946H15.1946H15.1946H15.1946H15.1947L15.1963 -0.0948761C15.2111 -0.0948877 15.232 -0.0949042 15.2587 -0.0872796C15.2624 -0.086468 15.2658 -0.0855405 15.2687 -0.0846318H15.2746L15.2889 -0.0775013L15.2891 -0.0774577C15.292 -0.0768848 15.2978 -0.0757236 15.3039 -0.0741338C15.3071 -0.0732697 15.3113 -0.0720739 15.3161 -0.0703999C15.3174 -0.0700234 15.3187 -0.0696403 15.3199 -0.0692604H15.3259L15.3469 -0.0587173C15.3469 -0.0587183 15.3477 -0.0583685 15.3495 -0.0575819L15.3573 -0.0544243L15.3584 -0.0539876C15.3601 -0.0533158 15.3622 -0.0524821 15.3645 -0.0515204C15.3767 -0.0490567 15.3916 -0.0440768 15.4065 -0.0340447L15.4289 -0.022844L15.4435 -0.0155873L15.4469 -0.0121349C15.4496 -0.0105033 15.4527 -0.00851064 15.4559 -0.00613629C15.459 -0.00422901 15.4617 -0.00243547 15.4639 -0.000914889C15.4682 0.0020544 15.4723 0.00507471 15.4746 0.00681813L15.475 0.00709274L15.4782 0.00944517L15.4896 0.0151531L15.493 0.0186094C15.4995 0.0225252 15.5081 0.0285195 15.5164 0.0368785L15.4457 0.107554L15.5164 0.0368719C15.5162 0.0367124 15.5161 0.0365917 15.5161 0.0365905C15.5161 0.0365874 15.5171 0.0373865 15.5211 0.0403902L15.5218 0.0409758C15.5269 0.0447298 15.5369 0.0522322 15.5471 0.0624866L15.5472 0.0624933L15.5574 0.07273L15.5644 0.0797316L15.5692 0.0869719C15.5697 0.0874624 15.5713 0.0892278 15.5753 0.0932272L15.5764 0.094292C15.5817 0.0995639 15.5924 0.110247 15.6024 0.12409L20.2801 5.85613C20.2862 5.86279 20.2909 5.86913 20.2943 5.87415C20.2984 5.88007 20.3018 5.88586 20.3035 5.88861L20.3052 5.89139C20.3127 5.8997 20.318 5.90786 20.3212 5.91355C20.323 5.91579 20.3244 5.91772 20.3255 5.91918C20.328 5.92269 20.3304 5.92616 20.3315 5.92785L20.3317 5.92813L24.9241 11.2734ZM24.9241 11.2734L24.9221 11.2715L22.581 8.93031C22.4642 8.81353 22.3104 8.75246 22.1465 8.75246C21.9804 8.75246 21.8283 8.82019 21.714 8.92843L21.714 8.9284L21.7121 8.93031L20.4125 10.2299V6.23463V6.23454V6.23445V6.23436V6.23427V6.23418V6.23409V6.234V6.23391V6.23382V6.23373V6.23364V6.23355V6.23346V6.23337V6.23328V6.23319V6.2331V6.23301V6.23292V6.23283V6.23274V6.23265V6.23256V6.23247V6.23238V6.23229V6.2322V6.23211V6.23202V6.23193V6.23184V6.23175V6.23166V6.23157V6.23148V6.23139V6.2313V6.23121V6.23112V6.23103V6.23094V6.23085V6.23076V6.23067V6.23058V6.23049V6.2304V6.23031V6.23022V6.23013V6.23004V6.22995V6.22986V6.22977V6.22968V6.22959V6.2295V6.22941V6.22932V6.22923V6.22914V6.22905V6.22896V6.22887V6.22878V6.22869V6.2286V6.22851V6.22842V6.22833V6.22824V6.22815V6.22806V6.22797V6.22788V6.22779V6.2277V6.22761V6.22752V6.22743V6.22734V6.22725V6.22716V6.22707V6.22698V6.22689V6.2268V6.22671V6.22662V6.22653V6.22644V6.22635V6.22626V6.22617V6.22608V6.22599V6.2259V6.22581V6.22572V6.22563V6.22554V6.22545V6.22536V6.22527V6.22518V6.22509V6.225V6.22491V6.22482V6.22473V6.22464V6.22455V6.22446V6.22437V6.22428V6.22419V6.2241V6.22401V6.22392V6.22382V6.22373V6.22365V6.22356V6.22346V6.22337V6.22328V6.22319V6.2231V6.22301V6.22292V6.22283V6.22274V6.22265V6.22256V6.22247V6.22238V6.22229V6.2222V6.22211V6.22202V6.22193V6.22184V6.22175V6.22166V6.22157V6.22148V6.22139V6.2213V6.22121V6.22112V6.22103V6.22094V6.22085V6.22076V6.22067V6.22058V6.22049V6.2204V6.22031V6.22022V6.22013V6.22004V6.21995V6.21986V6.21977V6.21968V6.21959V6.2195V6.21941V6.21932V6.21923V6.21914V6.21905V6.21896V6.21887V6.21878V6.21869V6.2186V6.21851V6.21842V6.21833V6.21824V6.21815V6.21806V6.21797V6.21788V6.21779V6.2177V6.21761V6.21752V6.21743V6.21734V6.21725V6.21716V6.21707V6.21698V6.21689V6.2168V6.21671V6.21662V6.21653V6.21644V6.21635V6.21626V6.21617V6.21608V6.21599V6.2159V6.21581V6.21572V6.21563V6.21554V6.21545V6.21536V6.21527V6.21518V6.21509V6.215V6.21491V6.21482V6.21473V6.21464V6.21455V6.21446V6.21437V6.21428V6.21419V6.2141V6.21401V6.21392V6.21383V6.21374V6.21365V6.21356V6.21347V6.21338V6.21329V6.2132V6.21311V6.21302V6.21293V6.21284V6.21275V6.21266V6.21257V6.21248V6.21239V6.2123V6.21221V6.21212V6.21203V6.21194V6.21185V6.21176V6.21167V6.21158V6.21149V6.2114V6.21131V6.21122V6.21113V6.21104V6.21095V6.21086V6.21077V6.21068V6.21059V6.2105V6.21041V6.21032V6.21023V6.21014V6.21005V6.20996V6.20987V6.20978V6.20969V6.2096V6.20951V6.20942V6.20933V6.20924V6.20915V6.20906V6.20897V6.20888V6.20879V6.2087V6.20861V6.20852V6.20843V6.20834V6.20825V6.20816V6.20807V6.20798V6.20789V6.2078V6.20771V6.20762V6.20753V6.20744V6.20735V6.20725V6.20716V6.20708V6.20698V6.20689V6.2068V6.20671V6.20662V6.20653V6.20644V6.20635V6.20626V6.20617V6.20608V6.20599V6.2059V6.20581V6.20572V6.20563V6.20554V6.20545V6.20536V6.20527V6.20518V6.20509V6.205V6.20491V6.20482V6.20473V6.20464V6.20455V6.20446V6.20437V6.20428V6.20419V6.2041V6.20401V6.20392V6.20383V6.20374V6.20365V6.20356V6.20347V6.20338V6.20329V6.2032V6.20311V6.20302V6.20293V6.20284V6.20275V6.20266V6.20257V6.20248V6.20239V6.2023V6.20221V6.20212V6.20203V6.20194V6.20185V6.20176V6.20167V6.20158V6.20149V6.2014V6.20131V6.20122V6.20113V6.20104V6.20095V6.20086V6.20077V6.20068V6.20059V6.2005V6.20041V6.20032V6.20023V6.20014V6.20005V6.19996V6.19987V6.19978V6.19969V6.1996V6.19951V6.19942V6.19933V6.19924V6.19915V6.19906V6.19897V6.19888V6.19879V6.1987V6.19861V6.19852V6.19843V6.19834V6.19825V6.19816V6.19807V6.19798V6.19789V6.1978V6.19771V6.19762V6.19753V6.19744V6.19735V6.19726V6.19717V6.19708V6.19699V6.1969V6.19681V6.19672V6.19663V6.19654V6.19645V6.19636V6.19627V6.19618V6.19609V6.196V6.19591V6.19582V6.19573V6.19564V6.19555V6.19546V6.19537V6.19528V6.19519V6.1951V6.19501V6.19492V6.19483V6.19474V6.19465V6.19456V6.19447V6.19438V6.19429V6.1942V6.19411V6.19402V6.19393V6.19384V6.19375V6.19366V6.19357V6.19348V6.19339V6.1933V6.19321V6.19312V6.19303V6.19294V6.19285V6.19276V6.19267V6.19258V6.19249V6.1924V6.19231V6.19222V6.19213V6.19204V6.19195V6.19186V6.19177V6.19168V6.19159V6.1915V6.19141V6.19132V6.19123V6.19114V6.19105V6.19096V6.19087V6.19077V6.19068V6.1906V6.19051V6.19041V6.19032V6.19023V6.19014V6.19005V6.18996V6.18987V6.18978V6.18969V6.1896V6.18951V6.18942V6.18933V6.18924V6.18915V6.18906V6.18897V6.18888V6.18879V6.1887V6.18861V6.18852V6.18849V6.18846V6.18843V6.1884V6.18837V6.18834V6.18831V6.18828V6.18825V6.18822V6.18819V6.18816V6.18813V6.1881V6.18807V6.18804V6.18801V6.18798V6.18795V6.18792V6.18789V6.18786V6.18783V6.1878V6.18777V6.18774V6.18771V6.18768V6.18765V6.18762V6.18759V6.18756V6.18753V6.1875V6.18747V6.18744V6.18741V6.18738V6.18735V6.18732V6.18729V6.18726V6.18723V6.1872V6.18717V6.18714V6.18711V6.18708V6.18705V6.18702V6.18699V6.18696V6.18693V6.1869V6.18687V6.18684V6.18681V6.18678V6.18675V6.18671V6.18668V6.18665V6.18662V6.18659V6.18656V6.18653V6.1865V6.18647V6.18644V6.18641V6.18638V6.18635V6.18632V6.18629V6.18626V6.18623V6.18619V6.18616V6.18613V6.1861V6.18607V6.18604V6.18601V6.18598V6.18595V6.18592V6.18589V6.18586V6.18583V6.18579V6.18576V6.18573V6.1857V6.18567V6.18564V6.18561V6.18558V6.18555V6.18551V6.18548V6.18545V6.18542V6.18539V6.18536V6.18533V6.1853V6.18527V6.18523V6.1852V6.18517V6.18514V6.18511V6.18508V6.18505V6.18501V6.18498V6.18495V6.18492V6.18489V6.18486V6.18482V6.18479V6.18476V6.18473V6.1847V6.18467V6.18463V6.1846V6.18457V6.18454V6.18451V6.18447V6.18444V6.18441V6.18438V6.18435V6.18431V6.18428V6.18425V6.18422V6.18418V6.18415V6.18412V6.18409V6.18406V6.18402V6.18399V6.18396V6.18393V6.18389V6.18386V6.18383V6.18379V6.18376V6.18373V6.1837V6.18366V6.18363V6.1836V6.18357V6.18353V6.1835V6.18347V6.18343V6.1834V6.18337V6.18333V6.1833V6.18327V6.18323V6.1832V6.18317V6.18313V6.1831V6.18307V6.18303V6.183V6.18297V6.18293V6.1829V6.18286V6.18283V6.1828V6.18276V6.18273V6.1827V6.18266V6.18263V6.18259V6.18256V6.18253V6.18249V6.18246V6.18242V6.18239V6.18235V6.18232V6.18228V6.18225V6.18222V6.18218V6.18215V6.18211V6.18208V6.18204V6.18201V6.18197V6.18194V6.1819V6.18187V6.18183V6.1818V6.18176V6.18173V6.18169V6.18166V6.18162V6.18159V6.18155V6.18151V6.18148V6.18144V6.18141V6.18137V6.18134V6.1813V6.18126V6.18123V6.18119V6.18116V6.18112V6.18108V6.18105V6.18101V6.18097V6.18094V6.1809V6.18087V6.18083V6.18079V6.18076V6.18072V6.18068V6.18065V6.18061V6.18057V6.18054V6.1805V6.18046V6.18042V6.18039V6.18035V6.18031V6.18027V6.18024V6.1802V6.18016V6.18012V6.18009V6.18005V6.18001V6.17997V6.17994V6.1799V6.17986V6.17982V6.17978V6.17975V6.17971V6.17967V6.17963V6.17959V6.17955V6.17951V6.17948V6.17944V6.1794V6.17936V6.17932V6.17928V6.17924V6.1792V6.17916V6.17913V6.17909V6.17905V6.17901V6.17897V6.17893V6.17889V6.17885V6.17881V6.17877V6.17873V6.17869V6.17865V6.17861V6.17857V6.17853V6.17849V6.17845V6.17841V6.17837V6.17833V6.17829V6.17825V6.17821V6.17816V6.17812V6.17808V6.17804V6.178V6.17796V6.17792V6.17788V6.17784V6.17779V6.17775V6.17771V6.17767V6.17763V6.17759V6.17754V6.1775V6.17746V6.17742V6.17737V6.17733V6.17729V6.17725V6.17721V6.17716V6.17712V6.17708V6.17703V6.17699V6.17695V6.17691V6.17686V6.17682V6.17678V6.17673V6.17669V6.17665V6.1766V6.17656V6.17651V6.17647V6.17643V6.17638V6.17634V6.17629V6.17625V6.17621V6.17616V6.17612V6.17607V6.17603V6.17598V6.17594V6.17589V6.17585V6.1758V6.17576V6.17571V6.17567V6.17562V6.17558V6.17553V6.17549V6.17544V6.17539V6.17535V6.1753V6.17526V6.17521V6.17516V6.17512V6.17507V6.17502V6.17498V6.17493V6.17488V6.17484V6.17479V6.17474V6.1747V6.17465V6.1746V6.17455V6.17451V6.17446V6.17441V6.17436V6.17432V6.17427V6.17422V6.17417V6.17412V6.17408V6.17403V6.17398V6.17393V6.17388V6.17383V6.17378V6.17374V6.17369V6.17364V6.17359V6.17354V6.17349V6.17344V6.17339V6.17334V6.17329V6.17324V6.17319V6.17314V6.17309V6.17304V6.17299V6.17294V6.17289V6.17284V6.17279V6.17274V6.17269V6.17263V6.17258V6.17253V6.17248V6.17243V6.17238V6.17233V6.17227V6.17222V6.17217V6.17212V6.17207V6.17201V6.17196V6.17191V6.17186V6.1718V6.17175V6.1717V6.17165V6.17159V6.17154V6.17149V6.17143V6.17138V6.17133V6.17127V6.17122V6.17116V6.17111V6.17106V6.171V6.17095V6.17089V6.17084V6.17078V6.17073V6.17068V6.17062V6.17057V6.17051V6.17045V6.1704V6.17034V6.17029V6.17023V6.17018V6.17012V6.17006V6.17001V6.16995V6.1699V6.16984V6.16978V6.16973V6.16967V6.16961V6.16956V6.1695V6.16944V6.16938V6.16933V6.16927V6.16921V6.16915V6.1691V6.16904V6.16898V6.16892V6.16886V6.1688V6.16875V6.16869V6.16863V6.16857V6.16851V6.16845V6.16839V6.16833V6.16827V6.16821V6.16815V6.16809V6.16803C20.4125 6.16476 20.4127 6.15206 20.4109 6.13916C20.4099 6.13257 20.4077 6.11996 20.4013 6.1056M24.9241 11.2734L20.4013 6.1056M20.4013 6.1056C20.4011 6.10495 20.4009 6.10433 20.4007 6.10377L20.4013 6.1056ZM20.3502 5.95712C20.3472 5.95043 20.3416 5.9397 20.332 5.92867L20.4005 6.10212C20.3996 6.09752 20.3987 6.09365 20.3979 6.09097C20.3973 6.08862 20.3966 6.08633 20.396 6.08443C20.3947 6.07494 20.3927 6.06725 20.3912 6.0623C20.3909 6.05985 20.3905 6.05773 20.3902 6.05601C20.3894 6.05142 20.3884 6.04755 20.3877 6.04487C20.3874 6.04391 20.3872 6.04296 20.3869 6.04205V6.03172L20.3767 6.01139L20.3762 6.01001L20.3746 6.00602C20.3732 6.00259 20.3704 5.99579 20.3659 5.98806C20.3649 5.98643 20.3639 5.9848 20.3629 5.98319C20.3622 5.98151 20.3614 5.97962 20.3605 5.97761C20.3588 5.97395 20.3564 5.96907 20.353 5.96359C20.3522 5.96169 20.3513 5.95949 20.3502 5.95712ZM20.3248 5.92045C20.3248 5.92035 20.3247 5.92025 20.3247 5.92013L20.3251 5.92096L20.3248 5.92045ZM15.4793 0.0102912L15.4793 0.0102842L15.4793 0.0102912ZM13.8706 16.8149L13.86 16.836V16.8437L13.8597 16.8444C13.8565 16.8509 13.8502 16.8632 13.8454 16.877L12.4423 20.5845L12.5359 20.6199L12.4423 20.5845C12.3566 20.8112 12.412 21.0627 12.583 21.2336C12.7001 21.3508 12.8592 21.4115 13.0174 21.4115C13.0898 21.4115 13.1629 21.3995 13.2309 21.3747L13.2318 21.3744L16.9648 19.977H16.9755L16.9966 19.9665C17.0039 19.9628 17.0086 19.9605 17.014 19.9584C17.0165 19.9578 17.0187 19.9572 17.0207 19.9566H17.0267L17.0478 19.946L17.0492 19.9453C17.0585 19.9407 17.0762 19.9319 17.0948 19.9158C17.0979 19.914 17.1015 19.9117 17.1055 19.9088C17.1086 19.9069 17.1113 19.9051 17.1135 19.9036C17.1181 19.9005 17.1223 19.8973 17.1245 19.8956L17.1277 19.8932L17.1391 19.8875L17.1426 19.8841C17.1456 19.8822 17.1491 19.88 17.1527 19.8772C17.1584 19.8736 17.163 19.8699 17.1668 19.8668C17.1677 19.866 17.1687 19.8651 17.1696 19.8643H17.1776L17.2068 19.8352L19.2084 17.8431V23.86H1.12459V1.10922H14.5055V6.23463C14.5055 6.57162 14.7808 6.84693 15.1178 6.84693H19.1879V11.4494L13.9764 16.6608L13.9747 16.6625C13.9671 16.6701 13.9563 16.6809 13.9459 16.697C13.9439 16.6994 13.9417 16.7021 13.9396 16.7049C13.9366 16.7088 13.9312 16.7164 13.9264 16.727C13.9246 16.7295 13.9228 16.7322 13.9208 16.735C13.9056 16.7567 13.8851 16.7859 13.8706 16.8149ZM17.0401 19.9486C17.041 19.9481 17.0405 19.9484 17.0398 19.9487L17.0401 19.9486ZM15.7301 2.21202L18.5137 5.62234H15.7301V2.21202ZM14.0604 19.7517L14.6549 18.1859L15.643 19.1572L14.0604 19.7517ZM23.6186 11.7006L16.7517 18.5325L15.2803 17.0845L22.1414 10.2234L23.6186 11.7006Z" fill="white" stroke="white" stroke-width="0.2"/>
</svg>
