<svg width="29" height="27" viewBox="0 0 29 27" fill="none" xmlns="http://www.w3.org/2000/svg">
<path d="M29 10.4775C29 7.87389 27.7498 5.43573 25.4798 3.6123C23.2549 1.82512 20.3057 0.84082 17.1757 0.84082C14.0457 0.84082 11.0965 1.82512 8.87156 3.6123C7.76849 4.49845 6.90704 5.52993 6.31198 6.65475C5.07761 7.04971 3.94264 7.64693 2.97171 8.42687C1.05544 9.96631 0 12.0267 0 14.2286C0 16.2364 0.888125 18.1431 2.5089 19.632L2.34911 25.4356C2.3413 25.7187 2.50403 25.979 2.76191 26.096C2.85508 26.1383 2.95415 26.1589 3.05253 26.1589C3.22636 26.1589 3.39793 26.0945 3.53075 25.9717L7.66512 22.1459C8.41181 22.2889 9.17929 22.3614 9.95187 22.3614C12.5348 22.3614 14.9716 21.5625 16.8306 20.11C16.9455 20.1126 17.0604 20.1144 17.1758 20.1144C18.3372 20.1144 19.4817 19.978 20.5837 19.7086L24.202 23.0569C24.3349 23.1797 24.5064 23.2441 24.6802 23.2441C24.7786 23.2441 24.8777 23.2235 24.9709 23.1812C25.2288 23.0642 25.3915 22.804 25.3837 22.5208L25.2462 17.5246C27.637 15.7056 29 13.1564 29 10.4775ZM9.95193 20.9534C9.15624 20.9534 8.36746 20.8668 7.60774 20.6959C7.38152 20.6452 7.14522 20.7087 6.97524 20.8661L3.80228 23.8022L3.92503 19.3422C3.93086 19.1293 3.84006 18.9252 3.67796 18.7871C2.21397 17.5395 1.40769 15.9205 1.40769 14.2286C1.40769 11.7657 3.09898 9.60811 5.61513 8.43661C5.44135 9.09942 5.35141 9.78245 5.35141 10.4774C5.35141 13.081 6.60158 15.5191 8.87156 17.3426C10.4666 18.6238 12.4338 19.4922 14.573 19.8814C13.2397 20.5589 11.6535 20.9534 9.95193 20.9534ZM24.1252 16.6014C23.9334 16.7374 23.8223 16.9599 23.8288 17.1949L23.9303 20.8875L21.2572 18.4139C21.1255 18.292 20.9541 18.2266 20.7791 18.2266C20.7169 18.2266 20.6542 18.2348 20.5926 18.2518C19.4956 18.5534 18.346 18.7064 17.1756 18.7064C11.4319 18.7064 6.75898 15.0149 6.75898 10.4774C6.75898 5.93989 11.4319 2.24845 17.1757 2.24845C22.9195 2.24845 27.5923 5.93995 27.5923 10.4774C27.5923 12.8066 26.3286 15.0386 24.1252 16.6014Z" fill="white"/>
<path d="M17.2739 8.38672C16.0125 8.38672 14.9863 9.41288 14.9863 10.6743C14.9863 11.9357 16.0125 12.9618 17.2739 12.9618C18.5353 12.9618 19.5614 11.9357 19.5614 10.6743C19.5614 9.41288 18.5353 8.38672 17.2739 8.38672ZM17.2739 11.5541C16.7887 11.5541 16.3941 11.1594 16.3941 10.6743C16.3941 10.1891 16.7887 9.79446 17.2739 9.79446C17.7591 9.79446 18.1537 10.1891 18.1537 10.6743C18.1537 11.1594 17.7591 11.5541 17.2739 11.5541Z" fill="white"/>
<path d="M23.2563 8.38672C21.9949 8.38672 20.9688 9.41288 20.9688 10.6743C20.9688 11.9357 21.9949 12.9618 23.2563 12.9618C24.5177 12.9618 25.5438 11.9357 25.5438 10.6743C25.5438 9.41288 24.5177 8.38672 23.2563 8.38672ZM23.2563 11.5541C22.7711 11.5541 22.3765 11.1594 22.3765 10.6743C22.3765 10.1891 22.7712 9.79446 23.2563 9.79446C23.7414 9.79446 24.1361 10.1891 24.1361 10.6743C24.1361 11.1594 23.7415 11.5541 23.2563 11.5541Z" fill="white"/>
<path d="M11.2915 8.38672C10.0301 8.38672 9.00391 9.41288 9.00391 10.6743C9.00391 11.9357 10.0301 12.9618 11.2915 12.9618C12.5527 12.9618 13.579 11.9357 13.579 10.6743C13.579 9.41288 12.5528 8.38672 11.2915 8.38672ZM11.2915 11.5541C10.8063 11.5541 10.4117 11.1594 10.4117 10.6743C10.4117 10.1891 10.8063 9.79446 11.2915 9.79446C11.7766 9.79446 12.1712 10.1891 12.1712 10.6743C12.1712 11.1594 11.7766 11.5541 11.2915 11.5541Z" fill="white"/>
</svg>
